<?xml version="1.0" encoding="UTF-8"?>
<svg xmlns="http://www.w3.org/2000/svg" viewBox="0 0 53.8 28.3" xml:space="preserve">
<style type="text/css">
	.st0{opacity:0.7;fill:#890052;enable-background:new;}
	.st1{fill:#563D44;}
	.st2{fill:#F2F2F2;}
	.st3{fill:#CCCCCC;}
	.st4{fill:#563D45;}
	.st5{fill:#FF9200;}
	.st6{fill:#E2E2E2;}
	.st7{fill:#890052;}
	.st8{fill:#FFFFFF;}
	.st9{fill:#563D47;}
</style>
<g>
	<path id="Tracciato_129" class="st0" d="M28.9,14.5v7.4h2.9v-7.5h-0.7v-1.5h-0.5l-0.1-3.3c0.2-0.1-0.6-0.1-0.4,0L30,12.9h-0.5v1.6   H28.9z"></path>
	<path class="st1" d="M35.4,26.1V17h-8.7v9C11.9,26.1,0,26.6,0,27.2s12.1,1.1,26.9,1.1s26.9-0.5,26.9-1.1   C53.8,26.7,46.1,26.3,35.4,26.1z"></path>
	<rect id="Rettangolo_239" x="37.7" y="23.1" class="st2" width="12.8" height="4"></rect>
	<path id="Tracciato_381" class="st1" d="M36.4,23.6l1.5-4.3H50l1.1,4.3C51.1,23.6,36.4,23.6,36.4,23.6z"></path>
	<rect id="Rettangolo_242" x="40.6" y="24" class="st3" width="3.2" height="3.1"></rect>
	<rect id="Rettangolo_243" x="44.9" y="24.2" class="st4" width="1.7" height="2.9"></rect>
	<rect id="Rettangolo_247" x="47.4" y="24.4" class="st4" width="0.8" height="0.8"></rect>
	<rect id="Rettangolo_248" x="48.5" y="24.4" class="st4" width="0.8" height="0.8"></rect>
	<rect id="Rettangolo_249" x="47.4" y="25.4" class="st4" width="0.8" height="0.8"></rect>
	<rect id="Rettangolo_250" x="48.5" y="25.4" class="st4" width="0.8" height="0.8"></rect>
	<rect id="Rettangolo_263" x="45.3" y="24.6" class="st2" width="1" height="0.7"></rect>
	<ellipse id="Ellisse_90" class="st5" cx="46.4" cy="26" rx="0.1" ry="0.1"></ellipse>
	<rect id="Rettangolo_278" x="40.6" y="24.3" class="st2" width="3.2" height="0.1"></rect>
	<rect id="Rettangolo_279" x="40.6" y="24.5" class="st2" width="3.2" height="0.1"></rect>
	<rect id="Rettangolo_280" x="40.6" y="24.8" class="st2" width="3.2" height="0.1"></rect>
	<rect id="Rettangolo_281" x="40.6" y="25" class="st2" width="3.2" height="0.1"></rect>
	<rect id="Rettangolo_282" x="40.6" y="25.3" class="st2" width="3.2" height="0.1"></rect>
	<rect id="Rettangolo_283" x="40.6" y="25.5" class="st2" width="3.2" height="0.1"></rect>
	<rect id="Rettangolo_284" x="40.6" y="25.7" class="st2" width="3.2" height="0.1"></rect>
	<rect id="Rettangolo_285" x="40.6" y="26" class="st2" width="3.2" height="0.1"></rect>
	<rect id="Rettangolo_286" x="40.6" y="26.2" class="st2" width="3.2" height="0.1"></rect>
	<rect id="Rettangolo_287" x="40.6" y="26.5" class="st2" width="3.2" height="0.1"></rect>
	<rect id="Rettangolo_288" x="40.6" y="26.7" class="st2" width="3.2" height="0.1"></rect>
	<path id="Tracciato_126" class="st6" d="M16.5,12.2c0.2,0,0.4,0.1,0.6,0.2c0.1,0,0.3,0,0.4,0c0.3-0.4,0.9-0.5,1.3-0.2   c0.3,0.2,0.4,0.5,0.4,0.8h-3.6C15.6,12.5,16,12.2,16.5,12.2z"></path>
	<path id="Tracciato_127" class="st6" d="M11,15.1c0.2,0,0.4,0.1,0.6,0.2c0.1,0,0.3,0,0.4,0c0.3-0.4,0.8-0.5,1.2-0.2   c0.2,0.2,0.4,0.4,0.4,0.7h-3.4C10.3,15.4,10.6,15.1,11,15.1z"></path>
	<path id="Tracciato_128" class="st6" d="M5.6,10.3c0.2,0,0.4,0.1,0.6,0.2c0.1,0,0.3,0,0.4,0c0.3-0.4,0.9-0.5,1.3-0.2   c0.2,0.2,0.4,0.5,0.4,0.7H4.7C4.8,10.6,5.2,10.3,5.6,10.3z"></path>
	<rect id="Rettangolo_111" x="29.9" y="24.7" class="st6" width="2.4" height="2.5"></rect>
	<path id="Tracciato_130" class="st6" d="M23.8,3.8L23.8,3.8c0,0.3,0.1,0.6,0.3,0.8c0,0,0,0.1,0.1,0.1c-0.1,0.2-0.1,0.4-0.1,0.7   c0,0.8,0.4,1.4,0.9,1.4s0.9-0.6,0.9-1.4c0-0.2,0-0.3-0.1-0.5c0.3-0.3,0.4-0.9,0.1-1.2C26.3,4.1,27,4,27.3,3.6   C27.7,3,27.7,2.4,27.2,2c0.5-0.2,0.8-0.8,0.6-1.3c-0.2-0.5-0.8-0.8-1.3-0.6c-0.4,0.1-0.7,0.5-0.7,1l0,0c-0.5-0.2-1.1,0.1-1.3,0.7   v0.1c-0.5-0.3-1.1-0.1-1.4,0.4S23,3.4,23.5,3.7C23.6,3.7,23.7,3.8,23.8,3.8L23.8,3.8z M25.5,3.1C25.6,3.1,25.6,3.1,25.5,3.1   C25.6,3.1,25.6,3.1,25.5,3.1C25.6,3.1,25.6,3.1,25.5,3.1L25.5,3.1z"></path>
	<path id="Tracciato_131" class="st7" d="M24.4,13.7h1v-1.5l0,0l-0.1-5.6c-0.2,0.1-0.5,0.1-0.7,0l-0.1,5.6l0,0L24.4,13.7z"></path>
	<path id="Tracciato_132" class="st7" d="M22.6,14.8v12.3h4.8V14.7h-1.1v-2.5h-2.6v2.6L22.6,14.8z"></path>
	<path id="Tracciato_133" class="st6" d="M36,3.8L36,3.8c0,0.3,0.1,0.6,0.3,0.8c0,0,0,0.1,0.1,0.1c-0.1,0.2-0.1,0.4-0.1,0.7   c0,0.8,0.4,1.4,0.9,1.4s0.9-0.6,0.9-1.4c0-0.2,0-0.3-0.1-0.5c0.3-0.3,0.4-0.9,0.1-1.2c0.4,0.4,1.1,0.3,1.4-0.1   c0.4-0.6,0.4-1.2,0-1.6c0.5-0.2,0.8-0.8,0.6-1.3s-0.8-0.8-1.3-0.6c-0.4,0.1-0.7,0.5-0.7,1l0,0c-0.5-0.2-1.1,0.1-1.3,0.7v0.1   c-0.5-0.3-1.1-0.1-1.4,0.4c-0.3,0.5-0.1,1.1,0.4,1.4C35.8,3.7,35.9,3.8,36,3.8L36,3.8z M37.8,3.1L37.8,3.1L37.8,3.1L37.8,3.1   L37.8,3.1z"></path>
	<path id="Tracciato_134" class="st7" d="M36.7,13.7h1l-0.2-7.2c-0.2,0.1-0.5,0.1-0.7,0L36.7,13.7z"></path>
	<path id="Tracciato_135" class="st7" d="M34.8,14.8v12.3h4.8V14.7h-0.4h-0.7v-2.5h-2.6v2.6L34.8,14.8z"></path>
	<rect id="Rettangolo_112" x="32.4" y="18.8" class="st8" width="1.2" height="1.2"></rect>
	<rect id="Rettangolo_113" x="30.5" y="18.8" class="st8" width="1.2" height="1.2"></rect>
	<rect id="Rettangolo_114" x="28.6" y="18.8" class="st8" width="1.2" height="1.2"></rect>
	<rect id="Rettangolo_115" x="32.4" y="20.9" class="st8" width="1.2" height="1.2"></rect>
	<rect id="Rettangolo_116" x="30.5" y="20.9" class="st8" width="1.2" height="1.2"></rect>
	<rect id="Rettangolo_117" x="28.6" y="20.9" class="st8" width="1.2" height="1.2"></rect>
	<rect id="Rettangolo_121" x="24.4" y="17.6" class="st8" width="1.2" height="1.2"></rect>
	<rect id="Rettangolo_122" x="24.4" y="19.6" class="st8" width="1.2" height="1.2"></rect>
	<rect id="Rettangolo_123" x="24.4" y="21.6" class="st8" width="1.2" height="1.2"></rect>
	<rect id="Rettangolo_125" x="36.6" y="17.6" class="st8" width="1.2" height="1.2"></rect>
	<rect id="Rettangolo_126" x="36.6" y="19.6" class="st8" width="1.2" height="1.2"></rect>
	<rect id="Rettangolo_127" x="36.6" y="21.6" class="st8" width="1.2" height="1.2"></rect>
	<path id="Tracciato_384" class="st6" d="M29.6,8L29.6,8c0,0.2,0.1,0.3,0.2,0.4c0,0,0,0,0,0.1s-0.1,0.2-0.1,0.4   c0,0.4,0.2,0.8,0.5,0.8s0.5-0.4,0.5-0.8c0-0.1,0-0.2,0-0.3c0.2-0.2,0.2-0.5,0.1-0.7c0.2,0.2,0.6,0.2,0.8-0.1   c0.2-0.2,0.2-0.6-0.1-0.8l0,0c0.3-0.1,0.5-0.4,0.3-0.7C31.7,6,31.4,5.8,31.1,6c-0.2,0.1-0.4,0.3-0.4,0.5l0,0   c-0.3-0.1-0.6,0.1-0.7,0.4V7c-0.3-0.2-0.6-0.1-0.8,0.2C29,7.5,29.1,7.8,29.4,8C29.5,8,29.6,8,29.6,8L29.6,8z M30.6,7.6L30.6,7.6   C30.6,7.6,30.7,7.7,30.6,7.6C30.6,7.7,30.6,7.6,30.6,7.6L30.6,7.6z"></path>
	<rect id="Rettangolo_54" x="3.4" y="21" class="st2" width="8.7" height="6.1"></rect>
	<rect id="Rettangolo_55" x="4.2" y="23.4" class="st9" width="2.2" height="3.8"></rect>
	<rect id="Rettangolo_56" x="4.6" y="23.8" class="st2" width="0.6" height="0.5"></rect>
	<rect id="Rettangolo_57" x="5.4" y="23.8" class="st2" width="0.6" height="0.5"></rect>
	<rect id="Rettangolo_58" x="4.6" y="24.6" class="st2" width="0.6" height="0.6"></rect>
	<rect id="Rettangolo_59" x="5.4" y="24.6" class="st2" width="0.6" height="0.6"></rect>
	<ellipse id="Ellisse_28" class="st5" cx="6.1" cy="25.8" rx="0.1" ry="0.1"></ellipse>
	<rect id="Rettangolo_60" x="7.1" y="23" class="st7" width="4.3" height="3.6"></rect>
	<path id="Tracciato_109" class="st9" d="M13,22.2H2.5l0.7-1.5l0.2-0.3L3.6,20l0.2-0.3L4,19.3h8.3l0.1,0.4l0.1,0.3l0.1,0.4l0.1,0.3   L13,22.2z"></path>
	<rect id="Rettangolo_88" x="7.1" y="25.4" class="st2" width="4.3" height="0.1"></rect>
	<g>
		<path class="st5" d="M16.3,22.6l0.3,0.9c0.1,0.2,0.1,0.3,0.1,0.4h0c0-0.1,0.1-0.3,0.1-0.4l0.3-0.9h0.3l-0.7,1.7h-0.3l-0.6-1.7    H16.3z"></path>
		<path class="st5" d="M17.7,24c0.1,0.1,0.2,0.1,0.4,0.1c0.2,0,0.3-0.1,0.3-0.2c0-0.1-0.1-0.2-0.3-0.3c-0.3-0.1-0.4-0.3-0.4-0.5    c0-0.3,0.2-0.5,0.6-0.5c0.2,0,0.3,0,0.4,0.1l-0.1,0.2c-0.1,0-0.2-0.1-0.3-0.1c-0.2,0-0.3,0.1-0.3,0.2c0,0.1,0.1,0.2,0.3,0.3    c0.3,0.1,0.4,0.3,0.4,0.5c0,0.3-0.2,0.5-0.6,0.5c-0.2,0-0.4,0-0.5-0.1L17.7,24z"></path>
	</g>
</g>
</svg>