<?xml version="1.0" encoding="UTF-8"?>
<svg xmlns="http://www.w3.org/2000/svg" viewBox="0 0 43.1 28.3" xml:space="preserve">
<style type="text/css">
	.st0{fill:#E1CDD8;}
	.st1{fill:#563D4B;}
	.st2{fill:#412E36;}
	.st3{fill:#202020;}
	.st4{fill:#DEB7B7;}
	.st5{fill:#EFEAED;}
	.st6{fill:#890052;}
	.st7{opacity:0.25;enable-background:new;}
</style>
<g>
	<path id="Tracciato_210" class="st0" d="M37.5,13.3c-0.1-0.2,0-0.3,0.1-0.5c0-0.2-0.1-0.7-0.1-0.7s-0.5-1.9-0.6-2.3   c-0.1-0.1-0.2-0.3-0.3-0.3V9.4c-0.2-0.1-0.4-0.2-0.7-0.2c0-0.1-0.1-0.1-0.1-0.2c0-0.1,0.1-0.2,0-0.2c0-0.2-0.2-0.4-0.1-0.6   c0-0.2,0.1-0.3,0.2-0.4c0-0.1,0-0.3-0.1-0.4l0.1,0.1c0.1-0.1,0.1-0.3,0-0.4s-0.3-0.2-0.4-0.3c-0.1-0.1,0-0.3-0.1-0.5   c-0.2-0.3-0.7-0.1-1-0.2c-0.1,0-0.2-0.1-0.3-0.1s-0.2,0-0.3,0.1c-0.2,0-0.3,0.1-0.4,0.3l0,0c0.1-0.1,0.2-0.1,0.2,0c0,0,0,0,0,0.1   s-0.1,0.2-0.2,0.2c-0.1,0-0.2,0.1-0.2,0.2c-0.1,0.1,0,0.3,0,0.5s-0.1,0.4-0.3,0.5l0.3-0.1c-0.1,0.3-0.2,0.5-0.3,0.8l0.4-0.3   c-0.2,0.2-0.2,0.5-0.3,0.8l0.3-0.3v0.1V9v0.1c-0.1,0.1-0.1,0.2-0.1,0.3l0,0c-0.1,0.2-0.1,0.4-0.3,0.4c0.2,0,0.4-0.1,0.5-0.2   c0,0,0,0.1,0.1,0.1l0,0l0,0l-0.1,0.1c0,0-0.9,0.2-0.8,0.5l0,0l-0.2,0.4L32,11.9c0,0-0.2,0.4-0.2,0.6c0,0.2,0,0.2,0,0.5   s-0.1,0.4,0,0.7c0.1,0.2,0.6,0.9,0.6,0.9l0.1,0.1v0.1c0.1,0.4,0.9,4.6,0.9,4.6s-0.4,3.3,0.4,3.5c0.1,0,0.2,0,0.3,0.1l0.1,0.8   l-0.1,1.1c0,0-0.6,1.3,0.5,1.4s0.6-1.1,0.6-1.1c0.1-0.1,0.1-0.2,0.1-0.3c0-0.1-0.1-0.6-0.2-1.1c0.4,0,0.3-0.5,0.3-0.7   c0,0,0,0,0-0.1c0,0,0-0.2-0.1-0.5c0-0.2-0.1-0.6-0.2-0.9h0.3l1.1-6.5c0,0,0-0.1,0-0.3c0.2-0.1,0.3-0.1,0.5-0.2   c0.4-0.1,0.5-0.7,0.6-0.9C37.8,13.5,37.6,13.5,37.5,13.3z M33.6,9.2L33.6,9.2C33.7,9.2,33.6,9.2,33.6,9.2L33.6,9.2L33.6,9.2z    M33,12.4c0.1,0.1-0.1,0.5-0.2,0.9c-0.1-0.1-0.2,0-0.1-0.3c0.1-0.1,0.1-0.3,0.1-0.4C32.9,12.6,32.9,12.4,33,12.4L33,12.4L33,12.4z    M32.7,13.7c0.1,0,0.1-0.1,0.2-0.1C32.9,13.7,32.8,13.7,32.7,13.7C32.7,13.8,32.7,13.7,32.7,13.7L32.7,13.7z M36.3,13.8   c-0.1-0.1-0.1-0.1-0.2-0.2C36.2,13.6,36.3,13.6,36.3,13.8l0.2-0.1c0,0.1,0,0.2,0,0.2L36.4,14C36.3,13.9,36.3,13.9,36.3,13.8   L36.3,13.8z M36.6,13.4L36.6,13.4v-0.1c-0.1-0.2-0.1-0.6-0.1-1l0.2,0.7C36.6,13,36.6,13.4,36.6,13.4L36.6,13.4z"></path>
	<path id="Tracciato_211" class="st0" d="M31,10.6c0,0-1.1-1.9-1.2-2.1s-0.6-0.6-0.6-0.6c-0.2-0.2-0.5-0.3-0.8-0.2   c0.1-0.1-0.3-0.2-0.4-0.2c0-0.1-0.1-0.1-0.3-0.2s-0.5,0-0.5,0c-0.1-0.1-0.1-0.2-0.1-0.3c0.1-0.2,0.2-0.4,0.2-0.6l0,0l0,0   c0.1-0.4,0.2-0.7,0-1.1c-0.2-0.3-0.4-0.4-0.7-0.5L26.4,5l0.1-0.2c-0.1,0-0.1,0-0.2,0L26.1,5l0.1-0.2c-0.3,0-0.6,0.2-0.8,0.5   c-0.2,0.4-0.2,0.8,0,1.2l0,0c0,0.3,0.2,0.6,0.5,0.8L26,7.5l0,0c-0.1,0-0.1,0.1-0.2,0.1s-0.2,0.3-0.2,0.3s-0.1,0-0.1,0.2   c-0.2,0.1-0.7,0.5-0.9,0.7c-0.1,0.1-0.2,0.2-0.2,0.4c0,0.5,0,2.8,0,2.8s-0.3,1.9-0.2,2.1c0.1,0.1,0,0.6,0,0.6h0.1v0.1   c0,0-0.3,1.5,0.2,1.4c0.8-0.1,0.2-1.3,0.2-1.3v-0.1h0.1c0,0,0.1-0.5,0.2-0.5c0,0,0.1-0.1,0.2-0.3c0,0.3,0.1,0.4,0.1,0.4h0.2   l0.1,0.2l0,0v0.3c0,0.2,0,0.3,0,0.5c0,0.1,0.7,2,1.3,3.8v0.4c0,0-0.3,0.4-0.2,0.6s-0.2,2.3-0.2,2.3l-0.2,1h0.1v0.2l-0.1,0.1   C26,24.1,25.7,25,25.7,25s-0.6,0.9,0.4,0.9s1.1-0.4,1.1-0.4l0.1-0.9l-0.1-0.4l0,0v-0.4l0.2,0.1c0,0,0.2-0.9,0.3-1   c0,0,0.2-0.4,0.3-1c0.2,0.4,0.3,2,0.3,2.1c0,0,0,0,0,0.1c-0.2,0.3-0.3,0.6-0.5,0.9c0,0-1.1,0.7,0,0.8c0,0,0.6,0,0.9-0.2   s1.2-0.5,1.2-0.6s-0.2-1.1-0.4-1l0,0l-0.1-0.3l0.1-0.1l-0.9-4c0-0.1,0-0.2,0-0.3c0-0.2,0.5-3.8,0.6-4.7c0.5,0.1,1-0.9,1-0.9   l0.1-0.2l0.2,0.1c0,0,0.1-0.4,0.4-0.4s0.6-1.9,0.6-2.1C31.1,10.9,31.1,10.7,31,10.6L31,10.6z M29.4,13.3c0-0.1-0.1-0.1-0.1-0.2   c0.1-0.2,0.2-0.5,0.2-0.7c0.1-0.4-0.1-1.6-0.1-1.6v-0.1c0.2,0.2,0.4,0.5,0.4,0.6s0,0.2,0.1,0.2l-0.2,0.7c-0.1,0.2-0.1,0.3-0.2,0.5   c0,0.1,0,0.2,0,0.3l0,0L29.4,13.3z"></path>
	<path id="Tracciato_212" class="st0" d="M10.3,11.2h0.2L9.7,9L8.1,8.4l0,0C7.9,8.3,7.9,8.1,7.8,7.9c0.5-0.2,0.7-0.8,0.5-1.3   c0-0.1-0.1-0.1-0.1-0.2c0.1,0,0.2-0.2,0.2-0.3H8.3L8.5,6H8.4V5.9H8.3c0-0.1,0-0.2,0-0.3C8.2,5.6,8.1,5.5,8,5.5   C7.6,5.3,7.2,5.4,6.9,5.7l0,0C6.6,5.9,6.4,6.2,6.3,6.6c0,0.4,0.1,0.7,0.4,1l0,0l0,0v1.1h0c0,0-1.2,0.5-1.2,1.2l0,0   c-0.1,0.3-0.1,1.9-0.1,1.9h0.1l-0.1,0.6l-0.6,2.5c0,0-0.8,1.1-0.1,1.3c0.4,0.1,0.6-0.4,0.6-0.8c0,0.1,0.1,0.2,0.2,0.2l0,0   c-0.3,0.9-0.1,3.6-0.1,3.6C5.2,19.6,7.3,22,7.3,22l0.1-0.1V22c-0.1,0-0.1,0-0.1,0v1.1c0,0-0.3,1.1,0.1,1.3c0.1,0.1,0.2,0,0.3-0.1   c0,0.3-0.1,0.8-0.1,1s0.5,0.5,0.5,0.5s0.1,0.4,0.9,0.4s0.2-1,0.2-1l-0.5-1c0,0,0,0-0.1-0.1v-0.4h0.2l0.3-4.1c0,0,0.2-3.6,0.3-4.2   c0-0.2,0-0.4,0-0.5l1-2.1L10.3,11.2z M9.6,12.6L9.5,13v-0.8L9.6,12.6z M5.2,15.2c0-0.1,0-0.2,0-0.2l0.7-1.4V14   C5.8,14,5.3,14.7,5.2,15.2z M6.8,19.1l0.7-2.3l0.4,2.8v1c0-0.1-0.1-0.2-0.1-0.3C7.6,19.9,6.8,19.1,6.8,19.1z"></path>
	<path id="Tracciato_213" class="st0" d="M18.3,24.7c-0.3-0.1-1-0.4-1-0.6c-0.1-0.2-0.5-1.4-0.5-1.4h-0.1c0-0.5-0.1-2.7-0.2-2.9   c0,0,0.4-3.3-0.4-4.7L16,14.6c0-0.2,0-0.8,0-0.9c0-0.1,0.4-0.5,0.3-0.7s-0.5-1-0.5-1s0-0.5-0.5-1c0,0-0.2-0.9-0.8-0.9   c-0.1-0.2-0.2-0.4-0.2-0.5s0.2-0.5,0.3-0.7c0,0,0.1,0,0.1-0.1c0.5-0.2,0.9-0.8,0.9-1.5s-0.4-1.4-1-1.6c0.1-0.3,0-0.6-0.3-0.7   s-0.6,0-0.7,0.3c0,0.1,0,0.1,0,0.2c-0.1-0.3,0-0.6,0.3-0.7c0.1,0,0.2-0.1,0.3,0c-0.3-0.1-0.6,0-0.7,0.2c-0.1,0.2,0,0.5,0.1,0.6   c0,0,0,0,0,0.1c-0.6,0.2-1,0.8-1,1.5s0.4,1.2,0.9,1.5c0,0.2-0.1,0.6-0.4,0.8c-0.2-0.1-0.4-0.1-0.5-0.1c-0.1-0.1-0.2-0.1-0.3,0.1   c-0.3,0.3-0.5,1-0.5,1.5s0.1,3.2,0.1,3.2s-0.3,0.1-0.1,0.3c0,0,0.1,0.1,0.2,0.1l0.2,1.6c0,0-0.1,1.5,0.4,1.5h0.1l-0.4,1.7   c-0.6,0.5-1.2,1-1.6,1.7c-0.2,0.4-0.4,0.8-0.6,1.2L10,22.2L9.4,23c0,0-1,0.6-0.8,1S9,24.6,9,24.6l0.1-0.1L9.5,25   c0,0,0.7,0.9,1.7,0.5c0.1-0.1,0.1-0.3,0-0.5c-0.2-0.3-0.6-0.8-0.6-0.8l0.3-1.5h-0.1l1.8-2.2c0,0,0.5-0.3,0.7-0.6   c0.2-0.3,1.4-3.3,1.4-3.3l0.7,3.1c0,0,0,1.1,0.1,1.9c0.1,0.4,0.2,0.8,0.2,1.3l0,0l0.1,0.9c0,0-0.5,1.2-0.2,1.3   c0.2,0.1,0.5,0.1,0.8,0.1v-0.1c0,0,1.5,0.8,2,0.2C18.5,25.3,18.6,24.8,18.3,24.7z M13,15.2c0.1,0.1,0,0.3,0,0.3l-0.1,0.8l-0.1,0.5   c0-0.2,0-0.5-0.1-0.7l-0.1-1.4l0,0v-0.3c0,0,0-0.1,0.1-0.2c0.1,0.2,0.2,0.4,0.3,0.4v0.3c0,0-0.3,0.1,0,0.1l0,0v0.1   C13,15,12.9,15.2,13,15.2z"></path>
	<path class="st1" d="M43,26.3c0-0.7-9.6-1.2-21.5-1.2S0,25.6,0,26.3c0,0.4,3.6,0.8,9,1c0.7,0.6,6,1.1,12.5,1.1s11.8-0.5,12.5-1.1   C39.5,27.1,43,26.7,43,26.3z"></path>
	<path id="Tracciato_216" class="st2" d="M17.6,11.2c0,0-0.8,0.9-0.6,2.3c0.2,1.4,0.5,4.6,0.5,4.6l0.1,6.7h1.3l0.4-6l0.7-3.9   l1.8,4.5c0,0,1,5.3,1.1,5.3l1.2-0.3l-0.6-5.9c0,0-0.9-7.3-1.5-7.4S17.6,11.2,17.6,11.2z"></path>
	<path id="Tracciato_217" class="st3" d="M24,24.6c0,0-0.8-0.5-1.1,0.1s0,1,0,1s0.3,0.2,0.1,0.3c-0.1,0.2-0.2,1.3,0.9,1.1   c1.1-0.2,0.6-1.3,0.6-1.3L24,24.6z"></path>
	<path id="Tracciato_218" class="st3" d="M17.7,24.6c0,0,0.8-0.5,1.1,0.1c0.3,0.6,0,1,0,1s-0.3,0.2-0.1,0.3s0.2,1.3-0.9,1.1   c-1.1-0.2-0.6-1.3-0.6-1.3L17.7,24.6z"></path>
	<path class="st4" d="M20.4,3c0.2-0.3,0.4-0.6,0.4-1c0-0.8-0.6-1.4-1.4-1.4S18,1.2,18,2c0,0.5,0.3,1,0.7,1.2c0.1,0.4,0.2,1,0,1.4   c-0.3,0.6,0.5,1.3,0.5,1.3s2-1,1.8-1.5C20.8,3.9,20.4,3.4,20.4,3z"></path>
	<path id="Tracciato_220" class="st5" d="M18.4,4.5c0,0,1.4,1.1,2.4-0.5l1.1,0.6l0.6,6.5c0,0-3.1,1.8-4.6,0.3l0.2-6L18.4,4.5z"></path>
	<path id="Tracciato_221" class="st6" d="M18.8,3.9l-1.9,1.3l0.7,3.2l-0.9,4.9l1.5-2.2L18.8,3.9z"></path>
	<path id="Tracciato_222" class="st6" d="M20.5,3.5L21,3.9l1.9,0.7l-0.3,5.3l0.8,3.4l-1.2,0.6c0,0-0.2-1.6-1.5-2.4   C19.4,10.6,20.2,3.8,20.5,3.5z"></path>
	<path id="Tracciato_223" class="st4" d="M17.3,11.8l0.6,0.4c0,0-0.7,0.7-0.8,0.6C17,12.7,17,12.6,17,12.5l-0.1-0.3L17.3,11.8z"></path>
	<path id="Tracciato_224" class="st4" d="M21,11.8l-0.2,0.3c0,0-0.6,0.3-0.4,0.4c0.1,0.2,1.2,0.6,1.4,0.2l0.2-0.4L21,11.8z"></path>
	<path id="Tracciato_227" class="st2" d="M20.7,0.7c-0.2-0.3-0.5-0.6-0.9-0.7l-0.3,0.2L19.6,0c-0.1,0-0.2,0-0.3,0l-0.2,0.3L19.2,0   c-0.4,0.1-0.8,0.3-1.1,0.6c-0.3,0.5-0.4,1.1-0.1,1.6c0.1-0.3,0.2-0.5,0.3-0.8c0.1,0,0.1,0,0.2,0l0.1-0.2v0.2c0.3,0,0.8-0.1,1.1-0.1   V1.1l0.2,0.1c0.1,0,0.1,0,0.1-0.1c0.2,0.4,0.5,0.6,0.7,1C20.8,1.7,21,1.2,20.7,0.7z"></path>
	<polygon class="st7" points="21.7,6.1 22.5,9.2 20.8,11.9 20.8,11.6 22.1,9.2 21.4,6 22.1,4.4 22.2,4.5  "></polygon>
	<path id="Tracciato_226-2" class="st6" d="M22.2,4.5l0.7,0.1c0,0,0.8,0.8,0.9,1.7s0.1,3.3,0.1,3.3l-2,3.1l-1.1-0.8l1.5-2.6L21.6,6   L22.2,4.5z"></path>
	<polygon class="st7" points="17.2,5.2 17.3,5.1 18,6.7 17.5,10.7 17.8,11.8 17.6,11.9 17.3,10.8 17.8,6.6  "></polygon>
	<path id="Tracciato_225-2" class="st6" d="M17.2,5.2h-0.3l-0.5,3.2c0,0-0.2,0.6,0,1.9c0.2,1.4,0.4,2.3,0.4,2.3l0.9-0.7l-0.4-1.1   l0.6-4.1L17.2,5.2z"></path>
</g>
</svg>