<?xml version="1.0" encoding="utf-8"?>
<!-- Generator: Adobe Illustrator 25.3.1, SVG Export Plug-In . SVG Version: 6.00 Build 0)  -->
<svg version="1.1" id="Livello_1" xmlns="http://www.w3.org/2000/svg" xmlns:xlink="http://www.w3.org/1999/xlink" x="0px" y="0px"
	 viewBox="0 0 116.8 46.5" style="enable-background:new 0 0 116.8 46.5;" xml:space="preserve">
<style type="text/css">
	.st0{fill:#4989F5;}
	.st1{fill:url(#SVGID_1_);}
	.st2{fill:#3C4BA6;}
	.st3{fill:#7BABF7;}
	.st4{fill:#3F51B5;}
	.st5{fill-rule:evenodd;clip-rule:evenodd;fill:#709BE0;}
	.st6{fill-rule:evenodd;clip-rule:evenodd;fill:#3C4BA6;}
	.st7{fill:#FFFFFF;}
	.st8{fill:#3780FF;}
	.st9{fill:#38B137;}
	.st10{fill:#FA3913;}
	.st11{fill:#FCBD06;}
</style>
<g>
	<g>
		<path class="st0" d="M4.7,10.8h38.6c0.9,0,1.7,0.7,1.7,1.7v28c0,0.9-0.7,1.7-1.7,1.7H4.7c-0.9,0-1.7-0.7-1.7-1.7v-28
			C3.1,11.6,3.8,10.8,4.7,10.8z"/>
		
			<linearGradient id="SVGID_1_" gradientUnits="userSpaceOnUse" x1="-235.9486" y1="441.9564" x2="-235.9294" y2="441.9564" gradientTransform="matrix(2185.0801 0 0 -1647.9559 515569.6875 728350.9375)">
			<stop  offset="3.000000e-02" style="stop-color:#4079D8"/>
			<stop  offset="1" style="stop-color:#4989F5"/>
		</linearGradient>
		<path class="st1" d="M42.9,10.6H5.2c-1.2,0-2.1,9-2.1,10.2l20.6,21.4h19.1c1.2,0,2.1-1,2.1-2.1V12.7C45,11.5,44.1,10.6,42.9,10.6z
			"/>
		<path class="st2" d="M12.7,16.1h12V0.3H14.5L12.7,16.1z"/>
		<path class="st3" d="M36.6,16.1h-12V0.3h10.2L36.6,16.1z M45,3.3L45,3.3C45,3.4,45,3.3,45,3.3z"/>
		<path class="st4" d="M45,3.4L45,3.4c-0.4-1.8-1.9-3-3.7-3h-6.5l1.8,15.7h12L45,3.4z"/>
		<path class="st3" d="M4.3,3.3L4.3,3.3C4.2,3.4,4.3,3.3,4.3,3.3z"/>
		<path class="st3" d="M4.2,3.4L4.2,3.4c0.4-1.8,1.9-3,3.7-3h6.5l-1.8,15.7h-12L4.2,3.4z"/>
	</g>
	<path class="st5" d="M12.7,16.1c0,3.3-2.7,6-6,6s-6-2.7-6-6H12.7z"/>
	<path class="st6" d="M24.7,16.1c0,3.3-2.7,6-6,6s-6-2.7-6-6H24.7z"/>
	<path class="st5" d="M36.6,16.1c0,3.3-2.7,6-6,6s-6-2.7-6-6H36.6z"/>
	<path class="st6" d="M48.6,16.1c0,3.3-2.7,6-6,6s-6-2.7-6-6H48.6z"/>
	<path class="st7" d="M42.6,32.3c0-0.3-0.1-0.5-0.1-0.9H36c0,0.9,0,1.9,0,2.8h3.8c-0.2,0.9-0.7,1.6-1.4,2.1c0,0,0,0,0,0
		c-0.5,0.3-1,0.5-1.5,0.6c-0.5,0.1-1.1,0.1-1.7,0c-0.6-0.1-1.1-0.3-1.5-0.7c-0.7-0.5-1.2-1.2-1.5-1.9c0-0.1,0-0.1-0.1-0.2v0l0,0
		c-0.3-0.9-0.3-1.8,0-2.7c0.2-0.6,0.6-1.2,1-1.6c1.1-1.1,2.7-1.5,4.1-1.1c0.6,0.2,1.1,0.5,1.5,0.9l1.3-1.3c0.2-0.2,0.5-0.4,0.7-0.7
		c-0.6-0.6-1.4-1.1-2.2-1.4c-1.5-0.5-3.2-0.6-4.7,0c-0.1,0-0.1,0-0.2,0.1c-1.6,0.6-3,1.8-3.8,3.4c-0.3,0.6-0.5,1.1-0.6,1.7
		c-0.7,3.6,1.5,7.1,5,8.1c1.2,0.3,2.4,0.3,3.6,0c1.1-0.2,2-0.7,2.8-1.5c0.8-0.8,1.4-1.8,1.8-2.9C42.6,34.2,42.7,33.3,42.6,32.3
		L42.6,32.3z"/>
</g>
<g>
	<path class="st8" d="M63.8,10.5h0.5c1.8,0,3.6,0.8,4.9,2.1c-0.5,0.5-1,1-1.4,1.4c-0.7-0.7-1.6-1.2-2.6-1.3c-1.4-0.3-2.9,0-4.1,0.8
		c-1.3,0.8-2.2,2.3-2.4,3.8c-0.2,1.5,0.2,3.1,1.2,4.3c0.9,1.1,2.4,1.9,3.9,1.9c1.4,0.1,2.9-0.3,3.9-1.3c0.8-0.7,1.2-1.7,1.3-2.8
		c-1.7,0-3.3,0-5,0v-2.1h7c0.4,2.2-0.2,4.7-1.8,6.3c-1.1,1.1-2.7,1.8-4.2,1.9c-1.5,0.1-3.1-0.1-4.5-0.9c-1.6-0.9-2.9-2.3-3.6-4.1
		c-0.6-1.6-0.6-3.4,0-5c0.5-1.5,1.5-2.7,2.7-3.6C60.9,11.1,62.3,10.6,63.8,10.5z"/>
	<path class="st9" d="M103.9,11.1h2.1v14.3c-0.7,0-1.4,0-2.1,0C103.9,20.6,103.9,15.8,103.9,11.1L103.9,11.1z"/>
	<path class="st10" d="M75.8,16c1.3-0.2,2.7,0,3.8,0.8c1,0.7,1.7,1.8,1.9,3c0.3,1.4-0.1,2.9-1,4c-1,1.2-2.6,1.9-4.1,1.8
		c-1.4-0.1-2.8-0.8-3.6-1.9c-0.9-1.3-1.2-3-0.7-4.5C72.7,17.5,74.2,16.3,75.8,16 M76.1,17.9c-0.5,0.1-1,0.4-1.4,0.9
		c-1,1.2-0.9,3,0.2,4.1c0.6,0.6,1.5,0.9,2.4,0.7c0.8-0.1,1.5-0.7,1.9-1.4c0.7-1.2,0.5-2.8-0.5-3.8C78,17.9,77,17.7,76.1,17.9
		L76.1,17.9z"/>
	<path class="st11" d="M86.4,16c1.5-0.3,3.2,0.1,4.3,1.2c1.8,1.6,2,4.7,0.5,6.6c-0.9,1.2-2.5,1.9-4,1.8c-1.4,0-2.9-0.8-3.7-1.9
		c-1-1.3-1.2-3.1-0.6-4.6C83.4,17.5,84.8,16.3,86.4,16 M86.7,17.9c-0.5,0.1-1,0.4-1.4,0.9c-1,1.1-0.9,3,0.1,4.1
		c0.6,0.6,1.6,1,2.4,0.8c0.8-0.1,1.5-0.7,1.9-1.4c0.6-1.2,0.5-2.8-0.6-3.8C88.5,17.9,87.6,17.7,86.7,17.9L86.7,17.9z"/>
	<path class="st8" d="M95.4,16.6c1.1-0.7,2.7-0.9,3.9-0.3c0.4,0.2,0.7,0.5,1,0.7c0-0.3,0-0.5,0-0.8c0.7,0,1.3,0,2,0V25
		c0,1.3-0.3,2.7-1.3,3.7c-1,1.1-2.7,1.4-4.1,1.2c-1.5-0.2-2.9-1.4-3.5-2.8c0.6-0.3,1.2-0.5,1.8-0.8c0.3,0.8,1.1,1.5,1.9,1.7
		c0.9,0.2,1.9-0.1,2.5-0.8c0.6-0.8,0.6-1.8,0.6-2.7c-0.5,0.4-1,0.8-1.6,1c-1.4,0.4-2.9-0.1-4-1c-1.1-0.9-1.7-2.4-1.7-3.8
		C93.1,19,94,17.4,95.4,16.6 M97.5,17.9c-0.6,0.1-1.2,0.4-1.6,0.9c-0.9,1.1-0.9,2.9,0,4c0.5,0.6,1.4,1,2.2,0.9
		c0.8-0.1,1.5-0.6,1.9-1.3c0.7-1.2,0.5-2.8-0.3-3.8C99.2,18,98.3,17.7,97.5,17.9L97.5,17.9z"/>
	<path class="st10" d="M108.6,17.1c1.2-1.1,3-1.5,4.6-0.9c1.5,0.5,2.4,1.9,2.9,3.4c-2.2,0.9-4.3,1.8-6.5,2.7
		c0.3,0.6,0.8,1.1,1.4,1.3c0.9,0.3,1.9,0.2,2.6-0.4c0.3-0.2,0.5-0.5,0.7-0.8c0.5,0.4,1.1,0.7,1.6,1.1c-0.8,1.2-2.1,2-3.5,2.1
		c-1.6,0.2-3.2-0.4-4.2-1.6C106.6,22.1,106.8,18.8,108.6,17.1 M109.7,19c-0.3,0.5-0.5,1.1-0.5,1.7c1.4-0.6,2.9-1.2,4.3-1.8
		c-0.2-0.6-0.8-0.9-1.4-1C111.2,17.7,110.2,18.2,109.7,19z"/>
</g>
<g>
	<path class="st7" d="M60.3,33v-3.9h0.5l1.4,2.7l1.4-2.7h0.6V33h-0.5V30l-1.3,2.5H62L60.7,30V33H60.3z"/>
	<path class="st7" d="M65.3,34.3l0.7-1.5h-0.2l-1.1-2.5h0.5l0.9,2.2l1-2.2h0.5l-1.8,4H65.3z"/>
	<path class="st7" d="M69.6,33v-3.9h1.4c0.3,0,0.5,0,0.7,0.1c0.2,0.1,0.3,0.2,0.4,0.4c0.1,0.2,0.1,0.3,0.1,0.5
		c0,0.3-0.1,0.5-0.2,0.6c-0.1,0.1-0.3,0.2-0.5,0.3c0.1,0,0.3,0.1,0.4,0.2c0.1,0.1,0.2,0.2,0.3,0.3c0.1,0.1,0.1,0.3,0.1,0.4
		c0,0.2,0,0.4-0.1,0.5c-0.1,0.2-0.2,0.3-0.4,0.4C71.5,33,71.3,33,71,33H69.6z M70,30.8h0.9c0.2,0,0.4-0.1,0.6-0.2s0.2-0.3,0.2-0.5
		c0-0.2-0.1-0.4-0.2-0.5c-0.1-0.1-0.3-0.2-0.6-0.2H70V30.8z M70,32.6h0.9c0.3,0,0.5-0.1,0.6-0.2c0.1-0.1,0.2-0.3,0.2-0.5
		c0-0.2-0.1-0.4-0.2-0.5c-0.2-0.1-0.4-0.2-0.6-0.2H70V32.6z"/>
	<path class="st7" d="M73.9,33.1c-0.3,0-0.6-0.1-0.8-0.3c-0.2-0.2-0.3-0.5-0.3-0.9v-1.6h0.5v1.6c0,0.6,0.2,0.9,0.7,0.9
		c0.2,0,0.4-0.1,0.6-0.3c0.2-0.2,0.2-0.4,0.2-0.7v-1.4h0.5V33h-0.4l0-0.5c-0.1,0.2-0.2,0.3-0.4,0.4C74.3,33,74.1,33.1,73.9,33.1z"/>
	<path class="st7" d="M77.1,33.1c-0.3,0-0.6-0.1-0.8-0.3c-0.2-0.2-0.3-0.4-0.4-0.7h0.5c0,0.1,0.1,0.3,0.2,0.4
		c0.1,0.1,0.3,0.2,0.5,0.2c0.2,0,0.3,0,0.4-0.1c0.1-0.1,0.1-0.2,0.1-0.3c0-0.2-0.1-0.3-0.2-0.3c-0.1-0.1-0.3-0.1-0.5-0.2
		c-0.1,0-0.3-0.1-0.4-0.1c-0.1-0.1-0.3-0.1-0.4-0.2c-0.1-0.1-0.2-0.2-0.2-0.4c0-0.2,0.1-0.4,0.3-0.6c0.2-0.2,0.4-0.2,0.7-0.2
		c0.3,0,0.5,0.1,0.7,0.2c0.2,0.1,0.3,0.4,0.3,0.6h-0.5c0-0.1-0.1-0.3-0.2-0.3c-0.1-0.1-0.2-0.1-0.4-0.1c-0.2,0-0.3,0-0.4,0.1
		c-0.1,0.1-0.1,0.2-0.1,0.3c0,0.1,0.1,0.2,0.2,0.3c0.1,0.1,0.3,0.1,0.5,0.2c0.2,0,0.3,0.1,0.5,0.1c0.2,0.1,0.3,0.1,0.4,0.2
		c0.1,0.1,0.1,0.3,0.1,0.5c0,0.2-0.1,0.5-0.3,0.6C77.7,33,77.5,33.1,77.1,33.1z"/>
	<path class="st7" d="M79.2,29.6c-0.1,0-0.2,0-0.2-0.1c-0.1-0.1-0.1-0.1-0.1-0.2c0-0.1,0-0.2,0.1-0.2C79,29,79.1,29,79.2,29
		c0.1,0,0.2,0,0.2,0.1c0.1,0.1,0.1,0.1,0.1,0.2c0,0.1,0,0.2-0.1,0.2C79.3,29.6,79.3,29.6,79.2,29.6z M78.9,33v-2.8h0.5V33H78.9z"/>
	<path class="st7" d="M80.2,33v-2.8h0.4l0,0.5c0.1-0.2,0.2-0.3,0.4-0.4c0.2-0.1,0.4-0.2,0.6-0.2c0.3,0,0.6,0.1,0.8,0.3
		c0.2,0.2,0.3,0.5,0.3,0.9V33h-0.5v-1.6c0-0.6-0.2-0.9-0.7-0.9c-0.2,0-0.4,0.1-0.6,0.3c-0.2,0.2-0.2,0.4-0.2,0.7V33H80.2z"/>
	<path class="st7" d="M84.6,33.1c-0.3,0-0.5-0.1-0.7-0.2c-0.2-0.1-0.4-0.3-0.5-0.5c-0.1-0.2-0.2-0.5-0.2-0.8c0-0.3,0.1-0.5,0.2-0.8
		c0.1-0.2,0.3-0.4,0.5-0.5c0.2-0.1,0.4-0.2,0.7-0.2c0.3,0,0.5,0.1,0.7,0.2c0.2,0.1,0.3,0.3,0.4,0.5c0.1,0.2,0.2,0.4,0.2,0.6
		c0,0,0,0.1,0,0.1c0,0,0,0.1,0,0.1h-2.2c0,0.2,0.1,0.4,0.1,0.5c0.1,0.1,0.2,0.2,0.3,0.3c0.1,0.1,0.3,0.1,0.4,0.1
		c0.2,0,0.4,0,0.5-0.1c0.1-0.1,0.2-0.2,0.3-0.4h0.5c-0.1,0.3-0.2,0.5-0.4,0.6C85.2,33,85,33.1,84.6,33.1z M84.6,30.6
		c-0.2,0-0.4,0.1-0.6,0.2c-0.2,0.1-0.3,0.3-0.3,0.6h1.7c0-0.2-0.1-0.4-0.3-0.6C85.1,30.7,84.9,30.6,84.6,30.6z"/>
	<path class="st7" d="M87.6,33.1c-0.3,0-0.6-0.1-0.8-0.3c-0.2-0.2-0.3-0.4-0.4-0.7h0.5c0,0.1,0.1,0.3,0.2,0.4
		c0.1,0.1,0.3,0.2,0.5,0.2c0.2,0,0.3,0,0.4-0.1c0.1-0.1,0.1-0.2,0.1-0.3c0-0.2-0.1-0.3-0.2-0.3c-0.1-0.1-0.3-0.1-0.5-0.2
		c-0.1,0-0.3-0.1-0.4-0.1c-0.1-0.1-0.3-0.1-0.4-0.2c-0.1-0.1-0.2-0.2-0.2-0.4c0-0.2,0.1-0.4,0.3-0.6c0.2-0.2,0.4-0.2,0.7-0.2
		c0.3,0,0.5,0.1,0.7,0.2c0.2,0.1,0.3,0.4,0.3,0.6h-0.5c0-0.1-0.1-0.3-0.2-0.3c-0.1-0.1-0.2-0.1-0.4-0.1c-0.2,0-0.3,0-0.4,0.1
		C87.1,30.8,87,30.9,87,31c0,0.1,0.1,0.2,0.2,0.3c0.1,0.1,0.3,0.1,0.5,0.2c0.2,0,0.3,0.1,0.5,0.1c0.2,0.1,0.3,0.1,0.4,0.2
		c0.1,0.1,0.1,0.3,0.1,0.5c0,0.2-0.1,0.5-0.3,0.6C88.2,33,88,33.1,87.6,33.1z"/>
	<path class="st7" d="M90.4,33.1c-0.3,0-0.6-0.1-0.8-0.3c-0.2-0.2-0.3-0.4-0.4-0.7h0.5c0,0.1,0.1,0.3,0.2,0.4
		c0.1,0.1,0.3,0.2,0.5,0.2c0.2,0,0.3,0,0.4-0.1c0.1-0.1,0.1-0.2,0.1-0.3c0-0.2-0.1-0.3-0.2-0.3c-0.1-0.1-0.3-0.1-0.5-0.2
		c-0.1,0-0.3-0.1-0.4-0.1c-0.1-0.1-0.3-0.1-0.4-0.2c-0.1-0.1-0.2-0.2-0.2-0.4c0-0.2,0.1-0.4,0.3-0.6c0.2-0.2,0.4-0.2,0.7-0.2
		c0.3,0,0.5,0.1,0.7,0.2c0.2,0.1,0.3,0.4,0.3,0.6h-0.5c0-0.1-0.1-0.3-0.2-0.3c-0.1-0.1-0.2-0.1-0.4-0.1c-0.2,0-0.3,0-0.4,0.1
		c-0.1,0.1-0.1,0.2-0.1,0.3c0,0.1,0.1,0.2,0.2,0.3c0.1,0.1,0.3,0.1,0.5,0.2c0.2,0,0.3,0.1,0.5,0.1c0.2,0.1,0.3,0.1,0.4,0.2
		c0.1,0.1,0.1,0.3,0.1,0.5c0,0.2-0.1,0.5-0.3,0.6C91,33,90.8,33.1,90.4,33.1z"/>
</g>
</svg>
