<?xml version="1.0" encoding="UTF-8"?>
<svg xmlns="http://www.w3.org/2000/svg" viewBox="0 0 121.47 42.52">
<defs>
    <style>.white{fill:#fff;}</style>
</defs>
<path class="white" d="M19.08,0C22.39.22,24.6.62,30,2.33l5.43,24L19.05,42.52v-2L33.81,25.83,28.73,3.46a35.55,35.55,0,0,0-8.34-1.9L16.28,42.49,0,26.29l5.43-24C10.74.65,12.75.22,16.34,0V1.48c-3.34.25-4.57.43-9.68,2L1.58,25.83,15.11,39.26Z"></path>
<path fill="#ff9200" d="M17.7,11.11a2.82,2.82,0,0,0-2.82,2.82v8.43a2.82,2.82,0,1,0,5.63,0V13.93a2.81,2.81,0,0,0-2.81-2.82"></path>
<polygon class="white" points="45.45 23.1 50.1 25.85 50.1 24.83 46.62 22.78 50.1 20.74 50.1 19.76 45.45 22.46 45.45 23.1"></polygon>
<polygon class="white" points="116.82 19.8 116.82 20.79 120.3 22.83 116.82 24.88 116.82 25.89 121.47 23.15 121.47 22.51 116.82 19.8"></polygon>
<path class="white" d="M57.55,20.57a3,3,0,0,0-.73-.59,3.35,3.35,0,0,0-1.66-.5,3.22,3.22,0,0,0-2.33,1,3.26,3.26,0,0,0,0,4.62,3.22,3.22,0,0,0,2.33,1,3.28,3.28,0,0,0,1.62-.5,3.1,3.1,0,0,0,.77-.61v1h.88V15.81h-.88Zm-4.1,3.95a2.35,2.35,0,0,1-.71-1.72,2.37,2.37,0,0,1,.72-1.72,2.42,2.42,0,1,1,3.4,3.44,2.4,2.4,0,0,1-1.72.78,2.3,2.3,0,0,1-1.69-.78"></path>
<path class="white" d="M64.76,24.93a2.25,2.25,0,0,1-2.56-.14l3.93-3.88a3.25,3.25,0,0,0-5.93,1.85,3.36,3.36,0,0,0,6,2V23.36a4,4,0,0,1-1.48,1.57m.17-4.07-3.34,3.33c-1.69-2.11,1.23-5,3.34-3.33"></path>
<path class="white" d="M83.24,24.93a2.25,2.25,0,0,1-2.56-.14l3.93-3.88a3.25,3.25,0,0,0-5.93,1.85,3.36,3.36,0,0,0,6,2V23.36a4,4,0,0,1-1.48,1.57m.17-4.07-3.35,3.33c-1.68-2.11,1.24-5,3.35-3.33"></path>
<path class="white" d="M106.14,24.93a2.25,2.25,0,0,1-2.56-.14l3.93-3.88a3.25,3.25,0,0,0-5.93,1.85,3.36,3.36,0,0,0,6,2V23.36a4,4,0,0,1-1.48,1.57m.17-4.07L103,24.19c-1.68-2.11,1.23-5,3.35-3.33"></path>
<path class="white" d="M70.89,19.47a2.58,2.58,0,0,0-2,.8v-.65H68V26h.88V22.27a1.88,1.88,0,0,1,.6-1.38,1.93,1.93,0,0,1,1.4-.59,1.78,1.78,0,0,1,1.35.59,1.93,1.93,0,0,1,.56,1.38V26h.88V22.27a2.74,2.74,0,0,0-.8-2,2.71,2.71,0,0,0-2-.82"></path>
<path class="white" d="M112.27,19.47a2.57,2.57,0,0,0-2,.8v-.65h-.88V26h.88V22.27a1.84,1.84,0,0,1,.6-1.38,1.93,1.93,0,0,1,1.4-.59,1.78,1.78,0,0,1,1.35.59,1.92,1.92,0,0,1,.55,1.38V26h.88V22.27a2.74,2.74,0,0,0-.8-2,2.69,2.69,0,0,0-2-.82"></path>
<path class="white" d="M76.18,17.51a.58.58,0,1,0,.6.58.54.54,0,0,0-.6-.58"></path>
<rect class="white" x="75.74" y="19.62" width="0.88" height="6.4"></rect>
<polygon class="white" points="93.07 15.95 85.53 26.07 86.58 26.07 94.16 15.95 93.07 15.95"></polygon>
<path class="white" d="M98.93,20.57a3.1,3.1,0,0,0-.74-.59,3.29,3.29,0,0,0-1.65-.5,3.21,3.21,0,0,0-2.33,1,3.24,3.24,0,0,0,0,4.62,3,3,0,0,0,4,.51,3.29,3.29,0,0,0,.77-.61v1h.88V15.81h-.88Zm-4.1,3.95a2.44,2.44,0,0,1,0-3.44,2.38,2.38,0,0,1,1.7-.78A2.61,2.61,0,0,1,99,22.81a2.32,2.32,0,0,1-.73,1.71,2.36,2.36,0,0,1-1.71.78,2.3,2.3,0,0,1-1.69-.78"></path>
</svg>