<?xml version="1.0" encoding="UTF-8"?>
<svg xmlns="http://www.w3.org/2000/svg" viewBox="0 0 52.84 42.52">
<defs>
    <style>.white{fill:#fff;}</style>
</defs>
<path class="white" d="M27.38,0a26.72,26.72,0,0,1,7.56,1.61l3.78,16.65L27.36,29.55v-1.4L37.62,18,34.09,2.4A25,25,0,0,0,28.3,1.08L25.43,29.53,14.12,18.27,17.9,1.62A26.35,26.35,0,0,1,25.48,0V1A24.26,24.26,0,0,0,18.75,2.4L15.22,18l9.4,9.34Z"></path>
<path fill="#ff9200" d="M26.42,7.72a2,2,0,0,0-2,2v5.86a2,2,0,1,0,3.91,0V9.68a2,2,0,0,0-2-2"></path>
<polygon class="white" points="0 40.42 3.23 42.33 3.23 41.62 0.82 40.19 3.23 38.78 3.23 38.09 0 39.97 0 40.42"></polygon>
<polygon class="white" points="49.61 38.12 49.61 38.81 52.02 40.23 49.61 41.65 49.61 42.36 52.84 40.45 52.84 40 49.61 38.12"></polygon>
<path class="white" d="M8.41,38.65a2.06,2.06,0,0,0-.51-.4,2.27,2.27,0,0,0-1.15-.35,2.34,2.34,0,0,0-2.29,2.31,2.2,2.2,0,0,0,.67,1.6,2.25,2.25,0,0,0,1.62.71,2.26,2.26,0,0,0,1.13-.35,2.45,2.45,0,0,0,.53-.42v.69H9V35.35H8.41ZM5.56,41.4a1.69,1.69,0,0,1,0-2.39,1.6,1.6,0,0,1,1.17-.54A1.67,1.67,0,0,1,7.93,39a1.67,1.67,0,0,1,0,2.38,1.66,1.66,0,0,1-1.19.54,1.62,1.62,0,0,1-1.18-.54"></path>
<path class="white" d="M13.42,41.69a1.56,1.56,0,0,1-1.77-.1l2.73-2.7a2.26,2.26,0,0,0-4.13,1.29,2.34,2.34,0,0,0,4.21,1.41v-1a2.76,2.76,0,0,1-1,1.1m.12-2.83-2.32,2.31a1.66,1.66,0,0,1,2.32-2.31"></path>
<path class="white" d="M26.27,41.69a1.57,1.57,0,0,1-1.78-.1l2.73-2.7a2.26,2.26,0,0,0-4.12,1.29,2.34,2.34,0,0,0,4.2,1.41v-1a2.91,2.91,0,0,1-1,1.1m.12-2.83-2.33,2.31a1.66,1.66,0,0,1,2.33-2.31"></path>
<path class="white" d="M42.18,41.69a1.56,1.56,0,0,1-1.77-.1l2.73-2.7A2.26,2.26,0,0,0,39,40.18a2.34,2.34,0,0,0,4.21,1.41v-1a2.76,2.76,0,0,1-1,1.1m.12-2.83L40,41.17a1.66,1.66,0,0,1,2.32-2.31"></path>
<path class="white" d="M17.69,37.9a1.81,1.81,0,0,0-1.4.55V38h-.61v4.45h.61v-2.6a1.31,1.31,0,0,1,.42-1,1.35,1.35,0,0,1,1-.41,1.2,1.2,0,0,1,.93.41,1.34,1.34,0,0,1,.39,1v2.6h.61v-2.6a1.91,1.91,0,0,0-.56-1.38,1.87,1.87,0,0,0-1.37-.56"></path>
<path class="white" d="M46.45,37.9a1.81,1.81,0,0,0-1.4.55V38h-.61v4.45h.61v-2.6a1.31,1.31,0,0,1,.42-1,1.35,1.35,0,0,1,1-.41,1.2,1.2,0,0,1,.93.41,1.34,1.34,0,0,1,.39,1v2.6h.61v-2.6a1.91,1.91,0,0,0-.56-1.38,1.87,1.87,0,0,0-1.37-.56"></path>
<path class="white" d="M21.36,36.53a.37.37,0,0,0-.42.4.38.38,0,0,0,.42.41.39.39,0,0,0,.42-.41.38.38,0,0,0-.42-.4"></path>
<rect class="white" x="21.05" y="37.99" width="0.61" height="4.45"></rect>
<polygon class="white" points="33.1 35.44 27.86 42.48 28.59 42.48 33.86 35.44 33.1 35.44"></polygon>
<path class="white" d="M37.17,38.65a2.06,2.06,0,0,0-.51-.4,2.27,2.27,0,0,0-1.15-.35,2.34,2.34,0,0,0-2.29,2.31,2.2,2.2,0,0,0,.67,1.6,2.12,2.12,0,0,0,2.75.36,2.45,2.45,0,0,0,.53-.42v.69h.61V35.35h-.61ZM34.32,41.4a1.69,1.69,0,0,1,0-2.39,1.6,1.6,0,0,1,1.17-.54,1.67,1.67,0,0,1,1.19.55,1.67,1.67,0,0,1,0,2.38,1.66,1.66,0,0,1-1.19.54,1.62,1.62,0,0,1-1.18-.54"></path>
</svg>