<?xml version="1.0" encoding="UTF-8"?>
<svg xmlns="http://www.w3.org/2000/svg" viewBox="0 0 27.5 28.3" xml:space="preserve">
<style type="text/css">
	.st0{fill:#E6E6E6;}
	.st1{fill:#890052;}
	.st2{fill:#CCCCCC;}
	.st3{fill:#FFFFFF;}
</style>
<g>
	<path class="st0" d="M24.5,4.5h-7.7v-4c0-0.3-0.2-0.6-0.6-0.6H0.6C0.2,0,0,0.2,0,0.6v21.3c0,0.3,0.2,0.6,0.6,0.6h7.9v3.8   c0,0.2,0.2,0.4,0.4,0.4h15.7c0.2,0,0.4-0.2,0.4-0.4V4.9C24.9,4.7,24.7,4.5,24.5,4.5z M8.4,6.3H1.8c-0.1,0-0.3,0.1-0.3,0.3v5.9   c0,0.1,0.1,0.3,0.3,0.3l0.8,0c0,0-0.1,0-0.1,0c-0.1-0.1-0.1-0.2,0-0.2l4.7-4.7c0.1-0.1,0.2-0.1,0.2,0l1,1v5.3H1.8   c-0.1,0-0.3,0.1-0.3,0.3v5.9c0,0.1,0.1,0.3,0.3,0.3l0.8,0c0,0-0.1,0-0.1,0c-0.1-0.1-0.1-0.2,0-0.2l4.7-4.7c0.1-0.1,0.2-0.1,0.2,0   l1,1v5H1c-0.2,0-0.4-0.2-0.4-0.4V1.1c0-0.2,0.2-0.4,0.4-0.4h14.8c0.2,0,0.4,0.2,0.4,0.4v3.5h-0.9V1.9c0-0.2-0.1-0.3-0.3-0.3H1.8   c-0.1,0-0.3,0.1-0.3,0.3v2.8C1.6,4.8,1.7,5,1.8,5h6.6V6.3z M4.3,7.7c0,0.3-0.3,0.6-0.6,0.6S3.1,8.1,3.1,7.7c0-0.3,0.3-0.6,0.6-0.6   S4.3,7.4,4.3,7.7z M4.3,15.6c0,0.3-0.3,0.6-0.6,0.6s-0.6-0.3-0.6-0.6c0-0.3,0.3-0.6,0.6-0.6S4.3,15.2,4.3,15.6z M3.2,2.9V2.7h10.5   v0.3H3.2z M13.7,3.2v0.3H3.2V3.2H13.7z M3.2,3.9V3.6h10.5v0.3H3.2z M24.4,25.7c0,0.2-0.2,0.4-0.4,0.4H9.3c-0.2,0-0.4-0.2-0.4-0.4   V5.5c0-0.2,0.2-0.4,0.4-0.4H24c0.2,0,0.4,0.2,0.4,0.4V25.7z"></path>
	<path class="st1" d="M11.6,8.1c-0.1,0-0.2,0.1-0.2,0.2V9c0,0.1,0.1,0.2,0.2,0.2h10c0.1,0,0.2-0.1,0.2-0.2V8.2   c0-0.1-0.1-0.2-0.2-0.2H11.6z"></path>
	<path class="st2" d="M11.5,11C11.5,11,11.5,11,11.5,11l0,0.3c0,0,0,0,0,0h10.2c0,0,0,0,0,0V11c0,0,0,0,0,0H11.5z"></path>
	<path class="st2" d="M11.5,12C11.5,12,11.5,12,11.5,12l0,0.3c0,0,0,0,0,0h10.2c0,0,0,0,0,0V12c0,0,0,0,0,0H11.5z"></path>
	<path class="st2" d="M11.5,13C11.5,13,11.5,13,11.5,13l0,0.3c0,0,0,0,0,0h10.2c0,0,0,0,0,0V13c0,0,0,0,0,0H11.5z"></path>
	<path class="st2" d="M11.5,15.2C11.5,15.2,11.4,15.2,11.5,15.2l0,0.3c0,0,0,0,0,0h10.2c0,0,0,0,0,0v-0.3c0,0,0,0,0,0H11.5z"></path>
	<path class="st2" d="M11.5,16.4C11.5,16.4,11.4,16.5,11.5,16.4l0,0.3c0,0,0,0,0,0h10.2c0,0,0,0,0,0v-0.3c0,0,0,0,0,0H11.5z"></path>
	<path class="st2" d="M11.5,17.7C11.5,17.7,11.4,17.7,11.5,17.7l0,0.3c0,0,0,0,0,0h10.2c0,0,0,0,0,0v-0.3c0,0,0,0,0,0H11.5z"></path>
	<path class="st2" d="M11.5,18.9C11.5,18.9,11.4,18.9,11.5,18.9l0,0.3c0,0,0,0,0,0h10.2c0,0,0,0,0,0v-0.3c0,0,0,0,0,0H11.5z"></path>
	<path class="st2" d="M11.5,20.1C11.5,20.1,11.4,20.1,11.5,20.1l0,0.3c0,0,0,0,0,0h10.2c0,0,0,0,0,0v-0.3c0,0,0,0,0,0H11.5z"></path>
	<path class="st2" d="M11.5,21.3C11.5,21.3,11.4,21.3,11.5,21.3l0,0.3c0,0,0,0,0,0h10.2c0,0,0,0,0,0v-0.3c0,0,0,0,0,0H11.5z"></path>
	<path class="st2" d="M11.5,22.5C11.5,22.5,11.4,22.6,11.5,22.5l0,0.3c0,0,0,0,0,0h10.2c0,0,0,0,0,0v-0.3c0,0,0,0,0,0H11.5z"></path>
	<circle class="st1" cx="24.4" cy="25.2" r="3.1"></circle>
	<polygon class="st3" points="24.1,26.6 23.2,25.4 23.7,24.9 24.2,25.5 25.6,23.9 26.1,24.4  "></polygon>
</g>
</svg>