<?xml version="1.0" encoding="utf-8"?>
<svg xmlns="http://www.w3.org/2000/svg" viewBox="0 0 54.3 28.4" xml:space="preserve">
<style type="text/css">
	.st0{fill:#563D4B;}
	.st1{opacity:0.6;}
	.st2{opacity:0.5;fill:#FF9200;enable-background:new;}
	.st3{fill:#FF9200;}
	.st4{opacity:0.2;fill:#FF9200;enable-background:new;}
	.st5{opacity:0.3;fill:#FF9200;enable-background:new;}
	.st6{fill:#DEB7B7;}
	.st7{fill:#202020;}
	.st8{fill:#4F3843;}
	.st9{fill:#3F3D56;}
	.st10{fill:#680048;}
	.st11{opacity:0.1;enable-background:new;}
	.st12{fill:#EFEAED;}
	.st13{fill:#412E36;}
	.st14{fill:#890052;}
	.st15{opacity:0.8;}
</style>
<ellipse class="st0" cx="27.2" cy="27.1" rx="27.1" ry="1.2"/>
<g class="st1">
	<path class="st2" d="M33.3,13c0-0.1-0.4,0-0.2,0.1c0,0,0,0.1,0.1,0.1c0.3,0.4,0.6,1,0.5,1.5c0-0.6-0.2-1-0.4-1.6
		C33.4,13.1,33.4,13,33.3,13z"/>
	<path class="st3" d="M31.6,13.5c-0.7,0.4,1.7,0.4,1.9,0.9C33,13.9,32.4,13.6,31.6,13.5z"/>
	<path class="st2" d="M33.9,17.3c0,0.1,0.4,0,0.2-0.1c0-0.4-0.6-1,0-1.3c-0.4,0.5-0.1,0.8-0.2,1.3C33.7,17.2,33.7,17.2,33.9,17.3z"
		/>
	<path class="st4" d="M31.9,12.8C31.8,12.8,31.8,12.9,31.9,12.8c0,0.1,0,0.1,0,0.1c0.2,0,0.5,0.1,0.7,0.3c-0.1-0.1-0.2-0.2-0.3-0.3
		C32.2,13,32.1,12.9,31.9,12.8C32,12.9,31.9,12.8,31.9,12.8z"/>
	<path class="st3" d="M30.8,15.5c-0.2,0.1,0,0.3,0.1,0.2c0,0,0.1,0,0.1-0.1c0.6-0.4,1.4-0.4,2.1-0.4c-0.8-0.2-1.5,0-2.2,0.1
		C30.9,15.4,30.8,15.5,30.8,15.5z"/>
	<path class="st3" d="M34,12.1c-0.1-0.2-0.3,0-0.2,0.1c0,0,0,0.1,0.1,0.1c0.3,0.6,0.4,1.4,0.4,2.1c0.2-0.8,0.1-1.5-0.1-2.2
		C34,12.3,34,12.2,34,12.1z"/>
	<path class="st3" d="M32.6,12.4C32.7,12.4,32.7,12.4,32.6,12.4C32.7,12.4,32.7,12.4,32.6,12.4c0.1-0.1,0-0.1,0.1-0.2l0.1,0.1h0.1
		v0.1c0,0,0.1-0.1,0.1,0.1h-0.1c0,0.1,0,0.1,0,0.2l0,0l0,0l-0.1-0.1v0.1l0,0l0,0l0,0v-0.1l0,0h-0.1c0,0,0,0,0-0.1c0,0,0,0,0.1,0
		v-0.1H32.6z"/>
	<path class="st2" d="M35,13c0-0.1,0.4,0,0.2,0.2c0,0,0,0.1-0.1,0.1c-0.3,0.4-0.6,1-0.5,1.5c0-0.6,0.2-1,0.4-1.6
		C34.9,13.1,34.9,13,35,13z"/>
	<path class="st3" d="M36.6,13.7c0.7,0.4-1.7,0.4-1.9,0.9C35.2,14.1,35.8,13.8,36.6,13.7z"/>
	<path class="st2" d="M36.6,14.4c0.3,0.4-1.1,0.2-1.3,0.5c0.4-0.2,0.8-0.4,1.2-0.4C36.5,14.4,36.6,14.4,36.6,14.4z"/>
	<path class="st4" d="M36.4,12.8C36.5,12.8,36.5,12.9,36.4,12.8c0,0.2-0.5,0.1-0.7,0.4c0.1-0.1,0.2-0.2,0.3-0.3
		C36.1,13,36.2,12.9,36.4,12.8C36.4,12.9,36.4,12.8,36.4,12.8z"/>
	<path class="st4" d="M34.7,17.5C34.7,17.5,34.6,17.5,34.7,17.5C34.6,17.4,34.6,17.4,34.7,17.5c0-0.3-0.1-0.6-0.1-0.8
		C34.8,17,34.7,17,34.7,17.5C34.7,17.4,34.7,17.4,34.7,17.5z"/>
	<path class="st2" d="M36.4,17C36.5,17.1,36.3,17.1,36.4,17c-0.1,0-0.1,0-0.1-0.1c-0.3-0.4-0.5-0.7-0.8-1c0.2,0.1,0.4,0.3,0.5,0.4
		C36,16.6,36.2,16.8,36.4,17C36.3,17,36.3,17,36.4,17z"/>
	<path class="st4" d="M33.4,17.5C33.5,17.5,33.5,17.5,33.4,17.5C33.5,17.4,33.5,17.4,33.4,17.5c0-0.3,0.1-0.6,0.1-0.8
		C33.3,17,33.4,17,33.4,17.5C33.4,17.4,33.4,17.4,33.4,17.5z"/>
	<path class="st4" d="M35.9,13.5C35.9,13.5,35.9,13.6,35.9,13.5v0.1c-0.2,0-0.5,0.1-0.7,0.3c0.1-0.1,0.2-0.2,0.3-0.3
		C35.6,13.6,35.7,13.6,35.9,13.5C35.8,13.5,35.8,13.5,35.9,13.5z"/>
	<path class="st4" d="M35.2,12.2C35.3,12.2,35.3,12.3,35.2,12.2v0.1c-0.2,0.1-0.4,0.3-0.6,0.5c0-0.1,0.1-0.3,0.2-0.4
		C35,12.4,35.1,12.3,35.2,12.2L35.2,12.2z"/>
	<path class="st3" d="M37.4,15.4c0.2,0.1,0,0.3-0.1,0.2c0,0-0.1,0-0.1-0.1c-0.6-0.4-1.4-0.4-2.1-0.4c0.8-0.2,1.5,0,2.2,0.1
		C37.3,15.3,37.4,15.4,37.4,15.4z"/>
	<path class="st2" d="M36.9,16.3c0.1,0.1-0.1,0.2-0.2,0.1c-0.6-0.5-1.3-1.1-2.1-1C35.4,15.4,36.3,15.7,36.9,16.3z"/>
	<path class="st3" d="M35.5,18c0,0.2-0.2,0.1-0.2,0c0-0.8-0.4-1.6-1-2.2c0.6,0.5,0.9,1.3,1.1,2.1C35.5,17.9,35.5,17.9,35.5,18z"/>
	<path class="st3" d="M35.7,12.4C35.7,12.4,35.6,12.4,35.7,12.4C35.6,12.4,35.6,12.4,35.7,12.4c-0.1-0.1,0-0.1-0.1-0.2l-0.1,0.1
		h-0.1v0.1c0,0,0,0-0.1,0c0,0,0,0,0,0.1h0.1c0,0.1,0,0.1,0,0.2l0,0l0,0l0.1-0.1v0.1l0,0l0,0l0,0v-0.1l0,0l0,0c0.1,0,0.1,0.1,0.1-0.1
		c0,0,0,0-0.1,0v-0.1H35.7z"/>
	<path class="st4" d="M36,17.4L36,17.4L36,17.4c-0.1-0.1,0-0.1-0.1-0.2l-0.1,0.1h-0.1v0.1c0,0,0,0-0.1,0c0,0,0,0,0,0.1h0.1
		c0,0.1,0,0.1,0,0.2l0,0l0,0l0.1-0.1v0.1l0,0l0,0l0,0v-0.1l0,0l0,0c0.1,0,0.1,0.1,0.1-0.1c0,0,0,0-0.1,0v-0.1
		C36.1,17.3,36.1,17.4,36,17.4z"/>
	<path class="st3" d="M37,14.1L37,14.1L37,14.1c-0.1-0.1,0-0.1-0.1-0.2L36.8,14h-0.1v0.1c0,0,0,0-0.1,0c0,0,0,0,0,0.1h0.1
		c0,0.1,0,0.1,0,0.2l0,0l0,0l0.1-0.1v0.1l0,0l0,0l0,0v-0.1l0,0l0,0c0.1,0,0.1,0.1,0.1-0.1c0-0.1,0,0-0.1,0v-0.1
		C37.1,14,37.1,14,37,14.1z"/>
	<path class="st3" d="M33.2,17.9C33.2,17.9,33.1,17.9,33.2,17.9C33.1,17.9,33.1,17.9,33.2,17.9c-0.1-0.1-0.1-0.2-0.1-0.2
		c0,0.1-0.1,0.1-0.1,0.2l-0.2-0.1c0,0.1,0,0.1,0,0.2c-0.1,0-0.1,0.1-0.1,0.2h0.1c0,0.1,0,0.1,0,0.2l0,0l0,0c0.1,0,0.1-0.1,0.1-0.1
		l0.1,0.1l0,0c0.1,0,0.1-0.1,0.1-0.2l0,0l0,0c0.1,0,0.1,0,0.2,0c0-0.2-0.3-0.1-0.2-0.4C33.3,17.8,33.2,17.9,33.2,17.9z"/>
	<path class="st3" d="M31.3,14.2C31.3,14.2,31.2,14.2,31.3,14.2C31.2,14.2,31.2,14.1,31.3,14.2c-0.1-0.1-0.1-0.2-0.1-0.2
		c0,0.1-0.1,0.1-0.1,0.2l-0.2-0.1c0,0.1,0,0.1,0,0.2c-0.1,0-0.1,0.1-0.1,0.2h0.1c0,0.1,0,0.1,0,0.2l0,0l0,0c0.1,0,0.1-0.1,0.1-0.1
		l0.1,0.1l0,0c0.1,0,0.1-0.1,0.1-0.2l0,0l0,0c0.1,0,0.1,0,0.2,0c0-0.2-0.3-0.1-0.2-0.4C31.4,14.1,31.3,14.1,31.3,14.2z"/>
	<path class="st4" d="M36.4,16.5L36.4,16.5L36.4,16.5c0,0,0-0.1-0.1-0.1c0,0.1-0.1,0.1-0.2,0.1v0.1l0,0l0,0c0,0,0,0,0.1,0v0.1l0,0
		l0,0c0,0,0.1,0,0.1-0.1v0.1l0,0l0,0l0,0v-0.1l0,0l0,0h0.1C36.5,16.6,36.5,16.6,36.4,16.5C36.5,16.5,36.5,16.5,36.4,16.5
		C36.5,16.4,36.4,16.4,36.4,16.5z"/>
	<path class="st4" d="M34.1,17.8L34.1,17.8L34.1,17.8c0,0,0-0.1-0.1-0.1c0,0.1-0.1,0.1-0.2,0.1v0.1l0,0l0,0c0,0,0,0,0.1,0V18l0,0
		l0,0c0,0,0.1,0,0.1-0.1V18l0,0l0,0l0,0v-0.1l0,0l0,0h0.1C34.2,17.9,34.2,17.9,34.1,17.8C34.2,17.9,34.2,17.8,34.1,17.8
		C34.2,17.8,34.1,17.8,34.1,17.8z"/>
	<path class="st2" d="M31.9,13.1L31.9,13.1L31.9,13.1c0,0,0-0.1-0.1-0.1c0,0.1-0.1,0.1-0.2,0.1v0.1l0,0l0,0c0,0,0,0,0.1,0v0.1l0,0
		l0,0c0,0,0.1,0,0.1-0.1v0.1l0,0l0,0l0,0v-0.1l0,0l0,0H32C32,13.2,32,13.2,31.9,13.1C31.9,13.2,32,13.1,31.9,13.1L31.9,13.1z"/>
	<path class="st2" d="M35.9,15L35.9,15L35.9,15c0,0,0-0.1-0.1-0.1c0,0.1-0.1,0.1-0.2,0.1v0.1l0,0l0,0c0,0,0,0,0.1,0v0.1l0,0l0,0
		c0,0,0.1,0,0.1-0.1v0.1l0,0l0,0l0,0v-0.1l0,0l0,0h0.1C36,15.1,36,15.1,35.9,15C36,15,36,15,35.9,15C36,14.9,35.9,15,35.9,15z"/>
	<path class="st4" d="M33,13.5L33,13.5L33,13.5c0,0,0-0.1-0.1-0.1c0,0.1-0.1,0.1-0.2,0.1v0.1l0,0l0,0c0,0,0,0,0.1,0v0.1l0,0l0,0
		c0,0,0.1,0,0.1-0.1v0.1l0,0l0,0l0,0v-0.1l0,0l0,0H33C33.1,13.6,33.1,13.6,33,13.5C33.1,13.6,33.1,13.6,33,13.5
		C33.1,13.5,33,13.5,33,13.5z"/>
	<path class="st5" d="M34.1,15.5C34,15.5,34,15.5,34.1,15.5C34,15.5,34,15.5,34.1,15.5c0,0,0-0.1-0.1-0.1c0,0.1-0.1,0.1-0.2,0.1v0.1
		l0,0l0,0c0,0,0,0,0.1,0v0.1l0,0l0,0c0,0,0.1,0,0.1-0.1v0.1l0,0l0,0l0,0v-0.1l0,0l0,0h0.1C34.2,15.6,34.1,15.6,34.1,15.5
		C34.1,15.5,34.2,15.5,34.1,15.5C34.1,15.4,34.1,15.5,34.1,15.5z"/>
</g>
<path class="st6" d="M26.6,8.8c-0.6,0.5-2.9,0.5-1.5-0.5c0.2-0.3,0.1-0.6,0.1-1c0.3-0.6,0.9,0.4,1.2,0.1c0.2,0.3-0.1,0.8,0.3,1
	C26.7,8.6,26.6,8.7,26.6,8.8z"/>
<path class="st6" d="M21.2,4.8c0.1-0.2,0.1-0.5,0.1-0.7s0.1-0.3,0.2-0.5L21.7,3c0-0.1,0.1-0.1,0.1-0.2c0.1,0,0.1-0.1,0.2-0.1
	c0.2,0,0.5,0.1,0.6,0.2c0.2,0.2,0.2,0.5,0.1,0.7c-0.2,0.2-0.5,0.3-0.7,0.5c-0.1,0.1-0.2,0.3-0.2,0.5c0,0.5,0,1,0,1.5
	c0,0.1,0,0.3-0.2,0.4c-0.1,0-0.2,0.1-0.2,0H21c-0.1,0-0.3,0-0.3,0c-0.1-0.1,0.1-0.5,0.1-0.6c0.1-0.2,0.1-0.4,0.2-0.6
	C21.1,5.2,21.2,5,21.2,4.8z"/>
<path class="st7" d="M28.7,22c-0.7,0.8-0.5,2.7-1.8,2.7c-0.2,0-0.3-0.6-0.1-0.6c0.2-0.4,0.3-1,0.3-1.5c0.2-0.5,0.6-1.5,1.3-1l0,0
	c0.1,0,0.2,0.1,0.3,0.2C28.7,21.9,28.7,22,28.7,22z"/>
<path class="st7" d="M34.7,14.8c0,0.2,0,0.5-0.3,0.5c-0.8,0-1.6,0.2-2.3-0.1c-0.4,0-0.4-0.2-0.4-0.5c-0.4-1,2.1-0.4,2.5-0.3
	C34.3,14.4,34.7,14.6,34.7,14.8z"/>
<path class="st8" d="M33.3,15.6c-0.1,1.2-0.2,2.6-1,3.6c-1,3.5-3.3-0.8-4.9-1.3c-0.1,0-0.2,0-0.3,0.1c0,0,0,0-0.1,0.1
	c-0.3,1-1.6,1.4-2.1,2.2c0.4,0.2,0.9,0.5,1.2,0.7c0.3,0,0.6-0.1,0.8,0.2c0.4-0.1,0.6,0.3,1,0.2c0,0.1,0.1,0.2,0.1,0.3
	c0.3,0.6-0.2,1.3-0.7,1.6c-0.1,0-0.2,0-0.3-0.1c0,0,0-0.1-0.1-0.1c-0.3-0.1-0.4,0-0.5-0.3c-0.4-0.3-1.1-0.1-1.5-0.3
	c-0.5-0.7-1.7-0.4-2.2-1c-0.6-1.2,0.7-2.8,1-4c0.3-0.3,0.6-0.6,0.6-1c0,0,0,0,0.1,0c0.1-0.1,0.1-0.2,0.1-0.2c0.2,0,0.1-0.1,0.1-0.2
	c0,0,0,0,0.1-0.1c0-0.1,0-0.4,0.1-0.6c1.3-0.4,2.8-1,4.2-0.3l0.1,0.1c0.1,0.3,0.4,0.4,0.4,0.7c0.4,0.5,1,1.2,1,1.9
	c0-0.3,0.2-0.5,0.4-0.7c0.3-0.1-0.2-0.5,0.1-0.6c0.1-0.3,0.4-0.4,0.4-0.7c-0.2-0.2,0-1,0.1-1c0.1-0.1,0.2-0.1,0.2-0.2
	C32.2,14.3,33.5,15.2,33.3,15.6z"/>
<path class="st9" d="M22.8,13.8c-0.3,0.2-0.3,0.6-0.6,0.9c0,0.2,0,0.3,0.1,0.5c0.8,0.6,1.4-0.5,2.2-0.1c0.1,0,0.2,0,0.3-0.1
	c0,0,0-0.1,0.1-0.1c0.1-1-0.2-2.4-1-3c0,0,0,0-0.1,0l0,0C23.2,12.5,23.4,13.3,22.8,13.8z"/>
<path class="st10" d="M24.8,14.8c0,0,0,0.1-0.1,0.1c-0.2,0.1-0.4,0.1-0.6,0c-0.3-0.1-0.6,0.3-0.9,0.3c-0.6,0.3-1.6-0.3-0.9-0.9
	c0-0.1,0-0.2,0.1-0.3c0.1-0.2,0.4-0.4,0.6-0.5l0,0c0.3-0.5,0.2-1.3,0.7-1.7C24.6,12.2,24.9,13.9,24.8,14.8z"/>
<path class="st11" d="M26.5,8c-0.5,0.2-1.1,0.1-1.4-0.4c0-0.1,0-0.1,0-0.2c0-0.3,0.3-0.2,0.5-0.1c0.2,0,0.5,0.1,0.7,0.2
	c0.1,0,0.1,0.1,0.2,0.1C26.5,7.8,26.5,7.8,26.5,8z"/>
<ellipse class="st6" cx="25.8" cy="6.8" rx="1" ry="1.3"/>
<path class="st12" d="M25.6,9c-0.2-0.2-0.7-0.2-0.8-0.3C23,10,24.4,13.1,24.5,15l0.1,0.8c0.3-0.3,0.8-0.1,1.1-0.2
	c1.1-0.2,2.2-0.6,3.3-0.4c0.2,0.1,0.3-0.2,0.1-0.2c-2.7-1.2-1.2-4.4-2.4-6.4l0,0C26.4,8.5,25.7,9,25.6,9z"/>
<path class="st6" d="M30.4,12.3c0.2-0.3,0.4-1,0.5-1.3c0.2-0.7,1.2-1.8,0.6-2.4c-0.1-0.1-0.3-0.4-0.5-0.2c-0.1,0-0.2,0.2-0.3,0.3
	c0.1,1.2-0.3,2.2-1.2,3c-0.3,0.4-0.1,0.9,0.3,1C30.2,12.6,30.2,12.5,30.4,12.3z"/>
<path class="st13" d="M26,5.1c0.4-0.6,0.8-0.2,1,0.3c0.5,0.2,0.7,0.8,0.3,1.3c0,0.3,0,0.5-0.3,0.6c0,0,0,0-0.1,0
	c-0.3-0.4-0.1-0.9-0.6-1.1c-0.4,0-0.7,0.5-1.1,0.2c-0.3-0.3-0.9-0.3-0.7-0.9c0.4-0.3,0.3-1.1,1-0.7c0.2,0.1,0.4,0.5,0.7,0.3"/>
<path class="st14" d="M29.7,11.4L29.7,11.4C29.6,11.4,29.6,11.4,29.7,11.4c-0.4-0.3-0.4-0.7-0.6-1.1c0-0.1-0.1-0.1-0.1-0.2
	c-0.2-0.2-0.1-0.6-0.3-0.8c0-0.5-0.6-0.6-1-0.6c-0.6,0-0.8-1.2-1.3,0c0.3,2.3-1.2,4.6-0.3,7c0.3-0.2,0.8-0.1,1.1,0
	c0.4-0.1,0.8-0.6,1.2-0.7c0.5-0.1,0.9-0.6,0.4-1c-0.2-0.3-0.3-0.8-0.7-0.9c-0.2,0-0.1-0.3,0-0.3c0.2-0.2-0.1-0.3-0.2-0.5
	c-0.2-0.1-0.1-0.4-0.1-0.6c0.1,0,0.1,0,0.2,0c0.3,0.3,0.5,0.7,0.7,1.1h0.1c0.1,0.1,0.2,0.3,0.3,0.4l0,0l0,0l0,0
	c0.6,0.2,0.9-0.3,1.3-0.7C29.9,12.3,29.6,11.9,29.7,11.4z"/>
<path class="st14" d="M25.2,8.1c-0.5,0-0.9,0.4-1.4,0.2c0,0-0.3,0.1-0.3,0.2h-0.1c-0.5-0.5-1.2-1-1.4-1.7c0-0.1,0.1-0.6-0.1-0.6
	C21.6,6.1,21,6,20.8,6.3l-0.1,0.1c0,0.1-0.5,0.3-0.2,0.4l0,0c0.2,0,0.1,0.4,0,0.4c0.4,1,1.3,1.8,2,2.6c0.3,0.1,0.5,0.4,0.8,0.4
	c0.3,1.1,0,2.3-0.4,3.4c-0.1,0-0.1,0.1-0.2,0.1c-0.2,0.1-0.3,0.4-0.4,0.6c0,0.1-0.1,0.2-0.2,0.3c0,0.2,0,0.3,0.1,0.5
	c0.1,0.1,0.3,0.1,0.4,0.1c0.3-1.3,1.1-2.3,1.6-3.4c0.2-0.7,0.4-1.9,0.4-2.6C24.6,8.9,25.4,8.1,25.2,8.1z"/>
<g class="st15">
	<path class="st2" d="M43.5,1.5c-0.9-0.4,1,2.1,0.6,2.7c0.2-0.9-0.2-1.7-0.6-2.5C43.6,1.6,43.5,1.5,43.5,1.5z"/>
	<path class="st3" d="M40.8,2.6C39.7,3,43.5,3.3,43.9,4c-0.6-0.8-1.8-1.1-2.8-1.4C41,2.7,40.9,2.6,40.8,2.6z"/>
	<path class="st4" d="M40.9,3.7C40.3,4.2,42.7,4,43,4.5c-0.6-0.4-1.2-0.7-1.9-0.7C41,3.7,41,3.7,40.9,3.7z"/>
	<path class="st2" d="M44.5,8.3c0.5,0.6-0.2-2,0.2-2.2C44.4,6.8,44.5,7.7,44.5,8.3z"/>
	<path class="st4" d="M41.2,1.2c-0.1,0-0.1,0.1,0,0.2c0.3,0,0.7,0.2,1,0.4c0.1,0,0.1,0.1,0.2,0.2C42.1,1.6,41.5,1.6,41.2,1.2z"/>
	<path class="st3" d="M39.6,5.3c-0.8,1,3.2-0.9,3.8-0.4C42.1,4.5,40.8,4.9,39.6,5.3z"/>
	<path class="st2" d="M40.4,6.8C40.2,7,40.5,7.2,40.7,7c0.1,0,0.1-0.1,0.2-0.1c0.9-0.7,2.1-1.5,3.3-1.5C42.9,5.4,41.4,6,40.4,6.8z"
		/>
	<path class="st3" d="M41.7,9.1c0.3,1.1,1.1-3.2,2.3-3.3C43,6.6,42,7.9,41.7,9.1z"/>
	<path class="st3" d="M44.5,0.1c-0.1-0.3-0.5,0-0.4,0.2c0.6,1,0.7,2.4,0.7,3.6C45.2,2.7,44.8,1.3,44.5,0.1z"/>
	<path class="st3" d="M42.4,0.6L42.4,0.6C42.4,0.6,42.5,0.6,42.4,0.6c0.1-0.1,0.1-0.2,0.1-0.2c0.1,0.1,0.1,0.1,0.1,0.2l0.2-0.1
		c0,0.1,0,0.2,0,0.2c0.1,0,0.1,0.1,0.1,0.2h-0.1c0,0.1,0,0.2,0,0.3l0,0c-0.1,0-0.1-0.1-0.2-0.2l-0.1,0.2l0,0c0,0,0,0-0.1,0V0.9l0,0
		c-0.1,0-0.1,0-0.2,0c0-0.1,0.2,0,0.2-0.2C42.4,0.6,42.3,0.5,42.4,0.6C42.3,0.5,42.4,0.5,42.4,0.6z"/>
	<path class="st2" d="M46.1,1.5c0.9-0.4-1,2.1-0.6,2.7c-0.2-0.9,0.2-1.7,0.6-2.5C46,1.6,46.1,1.5,46.1,1.5z"/>
	<path class="st3" d="M48.8,2.6C49.9,3.1,46,3.3,45.7,4C46.4,3.3,47.8,2.9,48.8,2.6z"/>
	<path class="st2" d="M48.7,3.7c0.6,0.5-1.8,0.3-2.1,0.8c0.6-0.4,1.2-0.7,1.9-0.7C48.6,3.7,48.6,3.7,48.7,3.7z"/>
	<path class="st4" d="M48.4,1.2c0.1,0,0.1,0.1,0,0.2c-0.3,0-0.7,0.2-1,0.4c-0.1,0-0.1,0.1-0.2,0.2C47.4,1.6,48,1.6,48.4,1.2z"/>
	<path class="st4" d="M45.6,8.6c-0.3,0.3,0.1-1.3-0.2-1.4c0.2,0.4,0.2,0.8,0.2,1.2C45.7,8.5,45.6,8.6,45.6,8.6z"/>
	<path class="st2" d="M48.3,7.9c0.1,0.1-0.1,0.1-0.2,0c0,0,0-0.1-0.1-0.1c-0.4-0.5-0.8-1.1-1.3-1.6C47.3,6.8,47.7,7.3,48.3,7.9z"/>
	<path class="st4" d="M41,7.9c-0.1,0.1,0.1,0.1,0.2,0c0,0,0-0.1,0.1-0.1c0.4-0.5,0.8-1.1,1.3-1.6C41.9,6.8,41.5,7.3,41,7.9z"/>
	<path class="st4" d="M43.7,8.6c0.3,0.3-0.1-1.3,0.2-1.4C43.6,7.6,43.7,8.2,43.7,8.6z"/>
	<path class="st4" d="M47.5,2.3c0.1,0,0.1,0.1,0,0.2c-0.3,0-0.7,0.2-1,0.4c-0.1,0-0.1,0.1-0.2,0.2C46.5,2.7,47.2,2.6,47.5,2.3z"/>
	<path class="st4" d="M46.6,0.2C46.7,0.1,46.8,0.3,46.6,0.2C46.7,0.3,46.7,0.3,46.6,0.2c-0.3,0.3-0.7,0.6-0.8,1
		C45.9,1,46,0.8,46.1,0.6C46.2,0.6,46.3,0.4,46.6,0.2C46.5,0.3,46.5,0.3,46.6,0.2z"/>
	<path class="st3" d="M50,5.3c0.8,1-3.2-0.9-3.8-0.4C47.4,4.5,48.8,4.9,50,5.3z"/>
	<path class="st2" d="M49.2,6.8C49.4,7,49.1,7.2,48.9,7c-0.1,0-0.1-0.1-0.2-0.1c-0.9-0.7-2.1-1.5-3.3-1.5C46.7,5.4,48.2,6,49.2,6.8z
		"/>
	<path class="st3" d="M47,9.4c-0.5,0.9-0.8-3.3-1.9-3.5C46,6.8,46.7,8,46.9,9.2C46.9,9.2,47,9.3,47,9.4z"/>
	<path class="st3" d="M47.2,0.6L47.2,0.6C47.2,0.6,47.1,0.6,47.2,0.6c-0.1-0.1-0.1-0.2-0.1-0.2C47,0.4,47,0.5,47,0.5l-0.2-0.1
		c0,0.1,0,0.2,0,0.2c-0.1,0-0.1,0.1-0.1,0.2h0.1c0,0.1,0,0.2,0,0.3l0,0l0,0c0.2,0,0.2,0,0.3-0.1l0.1,0.2l0,0
		c0.2,0.1,0.1-0.2,0.1-0.3l0,0l0,0c0.1,0,0.1,0,0.2,0c0-0.1-0.2,0-0.2-0.2C47.3,0.6,47.4,0.5,47.2,0.6C47.3,0.5,47.3,0.5,47.2,0.6z"
		/>
	<path class="st4" d="M47.8,8.5L47.8,8.5C47.7,8.5,47.7,8.5,47.8,8.5c-0.1-0.1-0.1-0.2-0.1-0.2c-0.1,0.1-0.1,0.1-0.1,0.2l-0.2-0.1
		c0,0.1,0,0.2,0,0.2c-0.1,0-0.1,0.1-0.1,0.2h0.1c0,0.1,0,0.2,0,0.3l0,0l0,0c0.1,0,0.1-0.1,0.2-0.2L47.7,9l0,0
		c0.2,0.1,0.1-0.2,0.1-0.3l0,0l0,0c0.1,0,0.1,0,0.2,0C48,8.6,47.7,8.7,47.8,8.5c0-0.1,0.1-0.2,0-0.2C47.9,8.4,47.8,8.4,47.8,8.5z"/>
	<path class="st3" d="M49.4,3.2L49.4,3.2L49.4,3.2C49.3,3.1,49.3,3,49.3,3c-0.1,0.1-0.1,0.1-0.1,0.2L49,3.1c0,0.1,0,0.2,0,0.2
		c-0.1,0-0.1,0.1-0.1,0.2H49c0,0.1,0,0.2,0,0.3l0,0l0,0c0.1,0,0.1-0.1,0.2-0.2l0.1,0.2l0,0c0.2,0.1,0.1-0.2,0.1-0.3l0,0l0,0
		c0.1,0,0.1,0,0.2,0C49.6,3.4,49.4,3.4,49.4,3.2c0,0,0.1-0.1,0-0.1C49.5,3.1,49.5,3.1,49.4,3.2z"/>
	<path class="st3" d="M42.9,9.3L42.9,9.3C42.9,9.3,42.8,9.2,42.9,9.3C42.8,9.2,42.8,9,42.7,9c-0.1,0.1-0.1,0.2-0.2,0.3l-0.3-0.1
		c0,0.1,0,0.2,0.1,0.3c-0.1,0-0.1,0.1-0.1,0.2c0.1,0,0.1,0,0.2,0c0,0.1,0,0.3,0,0.5l0,0c0.1-0.1,0.2-0.1,0.2-0.2l0.1,0.2
		c0,0,0,0,0,0.1h0.1c0-0.1,0-0.2,0-0.3l0,0l0,0c0.1,0,0.2,0,0.3,0c0-0.1-0.2-0.1-0.2-0.2c0-0.1,0.1-0.2,0-0.3
		C43.1,9.1,43,9.2,42.9,9.3z"/>
	<path class="st3" d="M40.2,3.3L40.2,3.3C40.2,3.3,40.1,3.3,40.2,3.3C40.1,3.2,40.1,3.1,40,3c-0.1,0.1-0.1,0.2-0.2,0.3l-0.3-0.1
		c0,0.1,0,0.2,0.1,0.3c-0.1,0-0.1,0.1-0.1,0.2c0.1,0,0.1,0,0.2,0c0,0.1,0,0.2,0,0.4l0,0C39.8,4.1,40,4,40,3.9l0.1,0.2c0,0,0,0,0,0.1
		h0.1c0-0.1,0-0.2,0-0.3l0,0l0,0c0.1,0,0.2,0,0.3,0c0-0.1-0.2,0-0.2-0.2C40.3,3.6,40.4,3.5,40.2,3.3C40.4,3.2,40.3,3.3,40.2,3.3z"/>
	<path class="st4" d="M48.4,7L48.4,7L48.4,7c-0.1-0.1,0-0.1-0.1-0.2c0,0-0.1,0.1-0.1,0.2h-0.1c0,0.1,0,0.1,0,0.2c0,0,0,0-0.1,0
		c0,0,0,0,0,0.1h0.1c0,0.1,0,0.1,0,0.2l0,0l0,0l0.1-0.1l0.1,0.1l0,0l0,0l0,0V7.4l0,0l0,0h0.2V7.3h-0.1C48.4,7.3,48.4,7.1,48.4,7z"/>
	<path class="st4" d="M44.7,9.1L44.7,9.1L44.7,9.1c-0.1-0.1,0-0.1-0.1-0.2c0,0-0.1,0.1-0.1,0.2h-0.1c0,0.1,0,0.1,0,0.2
		c0,0,0,0-0.1,0c0,0,0,0,0,0.1h0.1c0,0.1,0,0.1,0,0.2l0,0l0,0l0.1-0.1l0.1,0.1l0,0l0,0l0,0V9.5l0,0l0,0c0,0,0.1,0,0.2,0V9.4h-0.1
		C44.7,9.3,44.7,9.3,44.7,9.1C44.8,9.1,44.8,9.1,44.7,9.1z"/>
	<path class="st2" d="M41.2,1.7L41.2,1.7C41.2,1.7,41.1,1.7,41.2,1.7c-0.1-0.1,0-0.1-0.1-0.2c0,0-0.1,0.1-0.1,0.2h-0.1
		c0,0.1,0,0.1,0,0.2c0,0,0,0-0.1,0c0,0,0,0,0,0.1h0.1c0,0.1,0,0.1,0,0.2l0,0l0,0L41,2.1l0.1,0.1l0,0l0,0l0,0V2.1l0,0l0,0
		c0,0,0.1,0,0.2,0V2h-0.1C41.2,1.9,41.3,1.6,41.2,1.7z"/>
	<path class="st2" d="M43.1,5.9L43.1,5.9C43,5.9,43,5.9,43.1,5.9C43,5.8,43,5.7,43,5.7s-0.1,0.1-0.1,0.2h-0.1c0,0.1,0,0.1,0,0.2
		c0,0,0,0-0.1,0c0,0,0,0,0,0.1h0.1c0,0.1,0,0.1,0,0.2l0,0l0,0l0.1-0.1H43l0,0l0,0V6.2l0,0l0,0h0.1V6.1H43C43,6,43,6,43.1,5.9
		C43.2,5.8,43.1,5.9,43.1,5.9z"/>
	<path class="st2" d="M41.7,4.3L41.7,4.3L41.7,4.3c-0.1-0.1,0-0.1-0.1-0.2c0,0-0.1,0.1-0.1,0.2h-0.1c0,0.1,0,0.1,0,0.2
		c0,0,0,0-0.1,0c0,0,0,0,0,0.1h0.1c0,0.1,0,0.1,0,0.2l0,0l0,0l0.1-0.1l0.1,0.1l0,0l0,0l0,0V4.7l0,0l0,0h0.1V4.6h-0.1
		C41.6,4.5,41.6,4.5,41.7,4.3C41.8,4.2,41.7,4.2,41.7,4.3z"/>
	<path class="st2" d="M47.6,4.6L47.6,4.6L47.6,4.6c-0.1-0.1,0-0.1-0.1-0.2c0,0-0.1,0.1-0.1,0.2h-0.1c0,0.1,0,0.1,0,0.2
		c0,0,0,0-0.1,0c0,0,0,0,0,0.1h0.1c0,0.1,0,0.1,0,0.2l0,0l0,0L47.4,5l0.1,0.1l0,0l0,0l0,0V5l0,0l0,0h0.1V4.9h-0.1
		C47.5,4.8,47.5,4.8,47.6,4.6C47.7,4.6,47.6,4.6,47.6,4.6z"/>
	<path class="st4" d="M44.7,4.3L44.7,4.3L44.7,4.3c-0.1-0.1,0-0.1-0.1-0.2c0,0-0.1,0.1-0.1,0.2h-0.1c0,0.1,0,0.1,0,0.2
		c0,0,0,0-0.1,0c0,0,0,0,0,0.1h0.1c0,0.1,0,0.1,0,0.2l0,0l0,0l0.1-0.1l0.1,0.1l0,0l0,0l0,0V4.7l0,0l0,0c0,0,0.1,0,0.2,0V4.6h-0.1
		C44.7,4.5,44.7,4.5,44.7,4.3C44.8,4.3,44.8,4.3,44.7,4.3z"/>
	<path class="st5" d="M43.8,4.7L43.8,4.7L43.8,4.7c-0.1-0.1,0-0.1-0.1-0.2c0,0-0.1,0.1-0.1,0.2h-0.1c0,0.1,0,0.1,0,0.2
		c0,0,0,0-0.1,0c0,0,0,0,0,0.1h0.1c0,0.1,0,0.1,0,0.2l0,0l0,0l0.1-0.1l0.1,0.1l0,0l0,0l0,0V5.1l0,0l0,0C44,5,44,5,44.1,5V4.9H44
		c0-0.1,0-0.1,0-0.2C43.9,4.6,43.9,4.7,43.8,4.7z"/>
	<path class="st4" d="M43,2.3C43,2.4,43,2.4,43,2.3C43,2.4,43,2.3,43,2.3c-0.1-0.1,0-0.1-0.1-0.2c0,0-0.1,0.1-0.1,0.2h-0.1
		c0,0.1,0,0.1,0,0.2c0,0,0,0-0.1,0c0,0,0,0,0,0.1h0.1c0,0.1,0,0.1,0,0.2l0,0l0,0l0.1-0.1L43,2.8l0,0l0,0V2.7l0,0l0,0
		c0,0,0.1,0,0.2,0V2.6h-0.1C43.1,2.5,43.1,2.3,43,2.3z"/>
	<path class="st5" d="M44.6,5.4L44.6,5.4L44.6,5.4c-0.1-0.1,0-0.1-0.1-0.2c0,0-0.1,0.1-0.1,0.2h-0.1c0,0.1,0,0.1,0,0.2
		c0,0,0,0-0.1,0c0,0,0,0,0,0.1h0.1c0,0.1,0,0.1,0,0.2l0,0l0,0l0.1-0.1l0.1,0.1l0,0l0,0l0,0V5.8l0,0l0,0c0,0,0.1,0,0.2,0V5.7h-0.1
		C44.6,5.6,44.6,5.6,44.6,5.4C44.8,5.4,44.7,5.4,44.6,5.4z"/>
</g>
<path class="st2" d="M8.2,1.9C7.9,1.6,7.8,2,8,2.3C8.4,3,8.9,3.8,8.8,4.7C8.9,3.7,8.7,2.7,8.2,1.9z"/>
<path class="st3" d="M5.6,3.1C4.5,3.5,8.3,3.7,8.7,4.5C7.8,3.6,6.9,3.3,5.6,3.1z"/>
<path class="st4" d="M5.6,4.1C5,4.6,7.4,4.4,7.7,4.9C7.2,4.3,6.4,4.2,5.6,4.1z"/>
<path class="st2" d="M9.2,8.7c0.5,0.6-0.2-2,0.2-2.2C9,7,9.1,7.8,9.1,8.5C9.2,8.6,9.2,8.7,9.2,8.7z"/>
<path class="st4" d="M6,1.7c-0.1,0-0.1,0.1,0,0.2c0.4,0,0.9,0.2,1.1,0.5C6.8,2.1,6.4,1.8,6,1.7z"/>
<path class="st3" d="M4.3,5.7c-0.2,0.2,0,0.6,0.3,0.4c1-0.5,2.4-0.9,3.6-0.8C7,5.1,5.8,5.4,4.6,5.6C4.5,5.7,4.4,5.7,4.3,5.7z"/>
<path class="st2" d="M5.1,7.2C4.9,7.4,5.2,7.6,5.4,7.4c0.1,0,0.1-0.1,0.2-0.1c0.9-0.7,2.1-1.5,3.3-1.5C7.6,5.8,6,6.3,5.1,7.2z"/>
<path class="st3" d="M6.5,9.5C6.4,9.9,7,9.6,6.9,9.3c0.2-1,0.9-2.4,1.9-3C7.7,7,6.7,8.2,6.5,9.5z"/>
<path class="st3" d="M9.2,0.6c-0.1-0.3-0.5,0-0.4,0.2c0.6,1,0.7,2.4,0.7,3.6C9.9,3.1,9.5,1.7,9.2,0.6z"/>
<path class="st3" d="M7.1,1L7.1,1C7.2,1,7.2,1,7.1,1c0.1-0.1,0.1-0.2,0.1-0.2C7.3,0.9,7.3,0.9,7.3,1l0.2-0.1c0,0.1,0,0.2,0,0.2
	c0.1,0,0.1,0.1,0.1,0.2H7.5c0,0.1,0,0.2,0,0.3l0,0c-0.1,0-0.1-0.1-0.2-0.2L7.2,1.6l0,0c0,0,0,0-0.1,0V1.3l0,0c-0.1,0-0.1,0-0.2,0
	C6.9,1.2,7.1,1.2,7.1,1C7,1.2,6.9,1.1,7.1,1C7,0.9,7.1,1,7.1,1z"/>
<path class="st2" d="M10.8,1.9c0.9-0.4-1,2.1-0.6,2.7c-0.2-0.9,0.2-1.7,0.6-2.5C10.7,2.1,10.8,2,10.8,1.9z"/>
<path class="st3" d="M13.5,3.1c1.1,0.4-2.7,0.7-3.1,1.4C11.1,3.7,12.4,3.2,13.5,3.1z"/>
<path class="st2" d="M13.4,4.1c0.6,0.5-1.8,0.3-2.1,0.8c0.6-0.4,1.2-0.7,1.9-0.7C13.3,4.1,13.3,4.1,13.4,4.1z"/>
<path class="st4" d="M13.1,1.7c0.1,0,0.1,0.1,0,0.2c-0.3,0-0.7,0.2-1,0.4c-0.1,0-0.1,0.1-0.2,0.2C12.1,2,12.6,1.9,13,1.7
	C13,1.7,13,1.7,13.1,1.7z"/>
<path class="st4" d="M10.3,9c-0.3,0.3,0.1-1.3-0.2-1.4C10.3,7.9,10.4,8.7,10.3,9z"/>
<path class="st2" d="M13,8.3c0.1,0.1-0.1,0.1-0.2,0c0,0,0-0.1-0.1-0.1c-0.3-0.5-0.8-1.1-1.3-1.6C12,7.1,12.4,7.7,13,8.3z"/>
<path class="st4" d="M5.7,8.3c-0.1,0.1,0.1,0.1,0.2,0c0,0,0-0.1,0.1-0.1c0.3-0.5,0.8-1.1,1.3-1.6c-0.6,0.5-1,1-1.5,1.6
	C5.8,8.2,5.8,8.3,5.7,8.3z"/>
<path class="st4" d="M8.4,9c0,0.1,0.2,0.1,0.1,0c0-0.4-0.1-1,0.1-1.3C8.3,8.1,8.4,8.5,8.4,9z"/>
<path class="st4" d="M12.2,2.7c0.1,0,0.1,0.1,0,0.2c-0.3,0-0.7,0.2-1,0.4c-0.1,0-0.1,0.1-0.2,0.2C11.2,3,11.9,3,12.2,2.7z"/>
<path class="st4" d="M11.3,0.7c0.1-0.1,0.2,0.1,0.1,0.1c0,0,0,0-0.1,0C11,1,10.6,1.3,10.5,1.7c0.1-0.2,0.2-0.4,0.3-0.6
	C10.9,1.1,11,0.9,11.3,0.7C11.2,0.7,11.2,0.7,11.3,0.7z"/>
<path class="st3" d="M14.7,5.7c0.8,1-3.2-0.9-3.8-0.4C12.2,4.9,13.6,5.3,14.7,5.7z"/>
<path class="st2" d="M13.9,7.2c0.2,0.2-0.1,0.4-0.3,0.2c-0.1,0-0.1-0.1-0.2-0.1c-0.9-0.7-2.1-1.5-3.3-1.5
	C11.4,5.8,12.9,6.4,13.9,7.2z"/>
<path class="st3" d="M11.7,9.8c-0.5,0.9-0.8-3.3-1.9-3.5c0.9,0.9,1.6,2.1,1.8,3.3C11.7,9.7,11.7,9.7,11.7,9.8z"/>
<path class="st3" d="M11.9,1L11.9,1L11.9,1c-0.1-0.1-0.1-0.2-0.1-0.2c-0.1,0.1-0.1,0.1-0.1,0.2l-0.2-0.1c0,0.1,0,0.2,0,0.2
	c-0.1,0-0.1,0.1-0.1,0.2h0.1c0,0.1,0,0.2,0,0.3l0,0l0,0c0.1,0,0.1-0.1,0.2-0.2l0.1,0.2l0,0c0.2,0.1,0.1-0.2,0.1-0.3l0,0l0,0
	c0.1,0,0.1,0,0.2,0c0-0.1-0.2,0-0.2-0.2C11.9,1,12,0.9,11.9,1C12,0.9,12,1,11.9,1z"/>
<path class="st4" d="M12.5,8.9L12.5,8.9C12.4,8.9,12.4,8.9,12.5,8.9c-0.1-0.1-0.1-0.2-0.1-0.2c-0.1,0.1-0.1,0.1-0.1,0.2l-0.2-0.1
	c0,0.1,0,0.2,0,0.2C12,9,12,9.1,12,9.2h0.1c0,0.1,0,0.2,0,0.3l0,0l0,0c0.1,0,0.1-0.1,0.2-0.2l0.1,0.2l0,0c0.2,0.1,0.1-0.2,0.1-0.3
	l0,0l0,0c0.1,0,0.1,0,0.2,0c0-0.1-0.2,0-0.2-0.2C12.5,8.9,12.6,8.8,12.5,8.9C12.6,8.8,12.5,8.9,12.5,8.9z"/>
<path class="st3" d="M14.1,3.6L14.1,3.6L14.1,3.6C14,3.5,14,3.4,14,3.4c-0.1,0.1-0.1,0.1-0.1,0.2l-0.2-0.1c0,0.1,0,0.2,0,0.2
	c-0.1,0-0.1,0.1-0.1,0.2h0.1c0,0.1,0,0.2,0,0.3l0,0l0,0c0.1,0,0.1-0.1,0.2-0.2L14,4.2l0,0c0.2,0.1,0.1-0.2,0.1-0.3l0,0l0,0
	c0.1,0,0.1,0,0.2,0C14.3,3.8,14.1,3.9,14.1,3.6C14.1,3.6,14.2,3.5,14.1,3.6C14.2,3.5,14.2,3.6,14.1,3.6z"/>
<path class="st3" d="M7.6,9.7L7.6,9.7L7.6,9.7C7.5,9.6,7.5,9.4,7.5,9.3C7.4,9.4,7.3,9.5,7.3,9.6H7c0,0.1,0,0.2,0.1,0.3
	C7,9.9,7,10,7,10.1c0,0,0,0,0.1,0c0,0.1,0,0.2,0,0.4l0,0c0,0,0,0,0.1,0c0.1-0.1,0.2-0.1,0.2-0.2l0.1,0.2c0,0,0,0,0,0.1h0.1
	c0-0.1,0-0.2,0-0.3l0,0l0,0c0.1,0,0.2,0,0.3,0c0-0.1-0.2,0-0.2-0.2C7.7,10,7.8,9.9,7.6,9.7C7.8,9.6,7.7,9.6,7.6,9.7z"/>
<path class="st3" d="M4.9,3.8L4.9,3.8L4.9,3.8C4.8,3.6,4.8,3.5,4.8,3.4C4.7,3.5,4.6,3.6,4.6,3.7L4.3,3.6c0,0.1,0,0.2,0,0.3
	C4.2,3.9,4.2,4,4.2,4.1c0.1,0,0.1,0,0.2,0c0,0.1,0,0.2,0,0.4l0,0c0,0,0,0,0.1,0c0.1-0.1,0.2-0.1,0.2-0.2l0.1,0.2c0,0,0,0,0,0.1h0.1
	c0-0.1,0-0.2,0-0.3l0,0l0,0c0.1,0,0.2,0,0.3,0c0-0.1-0.2,0-0.2-0.2C5,4,5.1,3.9,4.9,3.8C5.1,3.6,5,3.7,4.9,3.8z"/>
<path class="st4" d="M13.1,7.4L13.1,7.4L13.1,7.4c-0.1-0.1,0-0.1-0.1-0.2c0,0-0.1,0.1-0.1,0.2h-0.1c0,0.1,0,0.1,0,0.2c0,0,0,0-0.1,0
	c0,0,0,0,0,0.1h0.1c0,0.1,0,0.1,0,0.2l0,0l0,0l0.1-0.1L13,7.9l0,0l0,0l0,0V7.8l0,0l0,0c0.1,0,0.1,0,0.1,0V7.7H13c0-0.1,0-0.1,0-0.2
	C13.2,7.4,13.1,7.4,13.1,7.4z"/>
<path class="st4" d="M9.4,9.6L9.4,9.6C9.4,9.6,9.4,9.5,9.4,9.6c-0.1-0.1,0-0.1-0.1-0.2c0,0-0.1,0.1-0.1,0.2H9.1c0,0.1,0,0.1,0,0.2
	c0,0,0,0-0.1,0c0,0,0,0,0,0.1h0.1c0,0.1,0,0.1,0,0.2l0,0l0,0L9.2,10l0.1,0.1l0,0l0,0l0,0V10l0,0l0,0h0.1V9.9H9.3
	C9.3,9.8,9.3,9.8,9.4,9.6C9.3,9.6,9.5,9.5,9.4,9.6z"/>
<path class="st2" d="M5.9,2.2L5.9,2.2C5.9,2.2,5.9,2.1,5.9,2.2C5.8,2.1,5.9,2,5.8,2c0,0-0.1,0.1-0.1,0.2L5.6,2.1c0,0.1,0,0.1,0,0.2
	c0,0,0,0-0.1,0c0,0,0,0,0,0.1h0.1c0,0.1,0,0.1,0,0.2l0,0l0,0l0.1-0.1l0.1,0.1l0,0l0,0l0,0V2.5l0,0l0,0h0.1V2.4L5.9,2.2
	C6,2.1,6,1.9,5.9,2.2z"/>
<path class="st2" d="M7.8,6.3L7.8,6.3c-0.1,0-0.1-0.1-0.1-0.2c0,0-0.1,0.1-0.1,0.2H7.5c0,0.1,0,0.1,0,0.2c0,0,0,0-0.1,0
	c0,0,0,0,0,0.1h0.1c0,0.1,0,0.1,0,0.2l0,0l0,0l0.1-0.1l0.1,0.1l0,0l0,0l0,0V6.7l0,0l0,0h0.1V6.6H7.7C7.7,6.5,7.7,6.3,7.8,6.3z"/>
<path class="st2" d="M6.4,4.7L6.4,4.7L6.4,4.7c-0.1-0.1,0-0.1-0.1-0.2c0,0-0.1,0.1-0.1,0.2H6.1c0,0.1,0,0.1,0,0.2c0,0,0,0-0.1,0
	c0,0,0,0,0,0.1h0.1c0,0.1,0,0.1,0,0.2l0,0l0,0l0.1-0.1h0.2l0,0l0,0V5l0,0l0,0h0.1V4.9H6.4C6.4,4.8,6.4,4.8,6.4,4.7
	C6.5,4.6,6.5,4.7,6.4,4.7z"/>
<path class="st2" d="M12.3,5.1L12.3,5.1L12.3,5.1c-0.1-0.1,0-0.1-0.1-0.2c0,0-0.1,0.1-0.1,0.2H12c0,0,0,0,0,0.1c0,0,0,0-0.1,0
	c0,0,0,0,0,0.1H12c0,0.1,0,0.1,0,0.2l0,0l0,0l0.1-0.1l0.1,0.1l0,0l0,0l0,0V5.4l0,0l0,0h0.1V5.3h-0.1C12.2,5.2,12.2,5.2,12.3,5.1
	S12.3,5.1,12.3,5.1z"/>
<path class="st4" d="M9.4,4.8L9.4,4.8L9.4,4.8c-0.1-0.1,0-0.1-0.1-0.2c0,0-0.1,0.1-0.1,0.2H9.1c0,0.1,0,0.1,0,0.2c0,0,0,0-0.1,0
	c0,0,0,0,0,0.1h0.1c0,0.1,0,0.1,0,0.2l0,0l0,0l0.1-0.1l0.1,0.1l0,0l0,0l0,0V5.2l0,0l0,0c0.1,0,0.1,0,0.1,0V5.1H9.3
	C9.3,5,9.3,5,9.4,4.8C9.5,4.7,9.5,4.7,9.4,4.8z"/>
<path class="st5" d="M8.5,5.1C8.5,5.2,8.5,5.2,8.5,5.1C8.5,5.2,8.5,5,8.5,5.1c0-0.1-0.1,0-0.1,0.1L8.2,5.1c0,0.1,0,0.1,0,0.2
	c0,0,0,0-0.1,0c0,0,0,0,0,0.1h0.1c0,0.1,0,0.1,0,0.2l0,0l0,0l0.1-0.1l0.1,0.1l0,0l0,0l0,0V5.5l0,0l0,0h0.1V5.4H8.4
	C8.4,5.3,8.4,5.3,8.5,5.1C8.7,5.1,8.6,5.1,8.5,5.1z"/>
<path class="st4" d="M7.7,2.8L7.7,2.8L7.7,2.8c-0.1-0.1,0-0.1-0.1-0.2c0,0-0.1,0.1-0.1,0.2H7.4c0,0.1,0,0.1,0,0.2c0,0,0,0-0.1,0
	c0,0,0,0,0,0.1h0.1c0,0.1,0,0.1,0,0.2l0,0l0,0l0.1-0.1l0.1,0.1l0,0l0,0l0,0V3.2l0,0l0,0h0.1V3.1H7.6C7.6,2.9,7.6,2.8,7.7,2.8z"/>
<path class="st5" d="M9.4,5.9C9.4,5.9,9.3,5.9,9.4,5.9C9.3,5.9,9.3,5.9,9.4,5.9c-0.1-0.1,0-0.1-0.1-0.2c0,0-0.1,0.1-0.1,0.2L9,5.8
	C9,5.9,9,5.9,9,6c0,0,0,0-0.1,0c0,0,0,0,0,0.1c0.1,0,0.1,0,0.2,0c0,0.1,0,0.1,0,0.2l0,0l0,0l0.1-0.1l0.1,0.1l0,0l0,0l0,0V6.2l0,0
	l0,0h0.1V6.1H9.3C9.3,6,9.3,6,9.4,5.9C9.5,5.8,9.4,5.8,9.4,5.9z"/>
</svg>