<?xml version="1.0" encoding="UTF-8"?>
<svg xmlns="http://www.w3.org/2000/svg" viewBox="0 0 60.9 28.3" xml:space="preserve">
<style type="text/css">
	.st0{fill:#563D48;}
	.st1{fill:#2C2626;}
	.st2{fill:#890052;}
	.st3{fill:#FFFFFF;}
	.st4{fill:#E1CDDB;}
	.st5{fill:#FF9200;}
	.st6{fill:#F2F2F2;}
	.st7{fill:#D999BF;}
	.st8{fill:#E6E6E6;}
	.st9{opacity:0.9;enable-background:new;}
	.st10{opacity:0.9;fill:#FF9200;enable-background:new;}
	.st11{fill:#E1CDD9;}
</style>
<g id="Raggruppa_68" transform="translate(-175 -243)">
	<path id="Tracciato_385" class="st0" d="M205.5,267.4c16.8,0,30.5,0.9,30.5,2s-13.6,2-30.5,2s-30.5-0.9-30.5-2   S188.6,267.4,205.5,267.4z"></path>
	<g id="undraw_online_test_gba7" transform="translate(246.093 243)">
		<path id="Tracciato_88" class="st1" d="M-21.5,0.3H-37V0h-7v0.3h-15.6c-0.6,0-1.1,0.5-1.1,1.1v21.3c0,0.6,0.5,1.1,1.1,1.1h38.2    c0.6,0,1.1-0.5,1.1-1.1l0,0V1.4C-20.5,0.8-20.9,0.3-21.5,0.3L-21.5,0.3L-21.5,0.3z"></path>
		<rect id="Rettangolo_33" x="-59.3" y="2.2" class="st2" width="37.4" height="21.1"></rect>
		<circle id="Ellisse_12" class="st3" cx="-40.6" cy="1.2" r="0.4"></circle>
		<path id="Tracciato_90" class="st1" d="M-18.5,22.9h-3.9v-0.3c0,0,0-0.1-0.1-0.1h-1.3c0,0-0.1,0-0.1,0.1v0.3h-0.8v-0.3    c0,0,0-0.1-0.1-0.1h-1.3c0,0-0.1,0-0.1,0.1v0.3H-27v-0.3c0,0,0-0.1-0.1-0.1h-1.3c0,0-0.1,0-0.1,0.1v0.3h-0.8v-0.3    c0,0,0-0.1-0.1-0.1h-1.3c0,0-0.1,0-0.1,0.1v0.3h-0.8v-0.3c0,0,0-0.1-0.1-0.1H-33c0,0-0.1,0-0.1,0.1v0.3h-0.8v-0.3    c0,0,0-0.1-0.1-0.1h-1.3c0,0-0.1,0-0.1,0.1v0.3H-36v-0.3c0,0,0-0.1-0.1-0.1h-10.4c0,0-0.1,0-0.1,0.1v0.3h-0.8v-0.3    c0,0,0-0.1-0.1-0.1h-1.3c0,0-0.1,0-0.1,0.1v0.3h-0.8v-0.3c0,0,0-0.1-0.1-0.1h-1.3c0,0-0.1,0-0.1,0.1v0.3H-52v-0.3    c0,0,0-0.1-0.1-0.1h-1.3c0,0-0.1,0-0.1,0.1v0.3h-0.8v-0.3c0,0,0-0.1-0.1-0.1h-1.3c0,0-0.1,0-0.1,0.1v0.3h-0.8v-0.3    c0,0,0-0.1-0.1-0.1H-58c0,0-0.1,0-0.1,0.1v0.3h-0.8v-0.3c0,0,0-0.1-0.1-0.1h-1.3c0,0-0.1,0-0.1,0.1v0.3H-63    c-0.7,0-1.3,0.6-1.3,1.3v0.6c0,0.7,0.6,1.3,1.3,1.3h44.3c0.7,0,1.3-0.6,1.3-1.3v-0.6C-17.2,23.5-17.8,22.9-18.5,22.9L-18.5,22.9z"></path>
		<path id="Tracciato_91" class="st4" d="M-25.4,10.2h-12.1V3.3h12.1V10.2z M-37.3,10h11.8V3.4h-11.8V10z"></path>
		<path id="Tracciato_92" class="st4" d="M-41.4,14.5h-10.7V7.8h10.7V14.5z M-52,14.4h10.4V7.9H-52V14.4z"></path>
		<path id="Unione_1" class="st5" d="M-42.6,18.2c-0.1,0-0.2,0-0.2,0.1c-1.4,0.3-2.6,0.2-2.7-0.2s0.9-1,2.3-1.4    c0.1,0,0.3-0.1,0.4-0.1c0.1-2.8,2.4-5.1,5.3-5c2.1,0.1,4,1.4,4.7,3.4h0.1c1.4-0.3,2.6-0.2,2.7,0.2s-0.9,1-2.3,1.4    c-0.1,0-0.1,0-0.2,0v0.1c0,2.8-2.3,5.2-5.2,5.2C-39.9,21.9-41.9,20.4-42.6,18.2z"></path>
		<circle id="Ellisse_16" class="st3" cx="-37.1" cy="15.5" r="1.8"></circle>
		<circle id="Ellisse_17" cx="-36.4" cy="14.8" r="0.6"></circle>
		<path id="Tracciato_97" class="st3" d="M-39.3,18.9c-0.1,0.6,0.3,1.2,1,1.4c0.7,0.1,1.4-0.3,1.5-0.9s-0.4-0.9-1.1-1    C-38.6,18.2-39.2,18.2-39.3,18.9z"></path>
		<rect id="Rettangolo_36" x="-58.6" y="2.8" class="st4" width="8.5" height="8.1"></rect>
		<rect id="Rettangolo_37" x="-57.6" y="3.7" class="st3" width="6.5" height="5"></rect>
		<rect id="Rettangolo_38" x="-57.6" y="9.3" class="st6" width="3.6" height="0.2"></rect>
		<rect id="Rettangolo_39" x="-57.6" y="9.9" class="st6" width="3.6" height="0.2"></rect>
		<circle id="Ellisse_20" cx="-56.4" cy="6.2" r="0.7"></circle>
		<circle id="Ellisse_21" class="st7" cx="-54.3" cy="6.2" r="0.7"></circle>
		<circle id="Ellisse_22" class="st8" cx="-52.2" cy="6.2" r="0.7"></circle>
		<rect id="Rettangolo_40" x="-53.6" y="16.2" class="st4" width="8.5" height="8.1"></rect>
		<rect id="Rettangolo_41" x="-52.6" y="17.2" class="st3" width="6.5" height="5"></rect>
		<rect id="Rettangolo_42" x="-51.2" y="18" class="st7" width="2.3" height="2.3"></rect>
		<path id="Tracciato_98" class="st9" d="M-50.3,18.6v2.8h2.8v-2.8H-50.3z M-47.6,21.3h-2.5v-2.5h2.5V21.3z"></path>
		<rect id="Rettangolo_43" x="-52.6" y="22.7" class="st6" width="3.6" height="0.2"></rect>
		<rect id="Rettangolo_44" x="-31" y="9.1" class="st4" width="11.6" height="9"></rect>
		<rect id="Rettangolo_45" x="-30" y="10.2" class="st3" width="9.4" height="5.6"></rect>
		<rect id="Rettangolo_46" x="-26" y="14.6" class="st10" width="1.6" height="0.5"></rect>
		<rect id="Rettangolo_47" x="-29" y="11" class="st9" width="7.5" height="0.2"></rect>
		<rect id="Rettangolo_48" x="-29" y="11.6" class="st9" width="7.5" height="0.2"></rect>
		<rect id="Rettangolo_49" x="-29" y="12.2" class="st9" width="7.5" height="0.2"></rect>
		<rect id="Rettangolo_50" x="-29" y="12.9" class="st9" width="7.5" height="0.2"></rect>
		<rect id="Rettangolo_51" x="-29" y="13.5" class="st9" width="7.5" height="0.2"></rect>
		<rect id="Rettangolo_52" x="-30" y="16.4" class="st6" width="4" height="0.2"></rect>
		<rect id="Rettangolo_53" x="-30" y="16.9" class="st6" width="5.6" height="0.2"></rect>
		<g>
			<path class="st11" d="M-31.8,7.4l0-0.1c0-0.3,0.1-0.5,0.3-0.8c0.2-0.3,0.3-0.4,0.3-0.6c0-0.2-0.2-0.4-0.4-0.4     c-0.2,0-0.4,0.1-0.5,0.1l-0.1-0.3c0.2-0.1,0.4-0.2,0.7-0.2c0.5,0,0.8,0.3,0.8,0.7c0,0.3-0.2,0.6-0.4,0.8     c-0.2,0.2-0.3,0.5-0.3,0.7l0,0.1H-31.8z M-31.9,8.1c0-0.2,0.1-0.3,0.3-0.3s0.3,0.1,0.3,0.3c0,0.2-0.1,0.3-0.3,0.3     C-31.7,8.4-31.9,8.3-31.9,8.1z"></path>
		</g>
	</g>
	<g>
		<path class="st11" d="M199,254.9l0-0.1c0-0.3,0.1-0.5,0.3-0.8c0.2-0.3,0.3-0.4,0.3-0.6c0-0.2-0.2-0.4-0.4-0.4    c-0.2,0-0.4,0.1-0.5,0.1l-0.1-0.3c0.2-0.1,0.4-0.2,0.7-0.2c0.5,0,0.8,0.3,0.8,0.7c0,0.3-0.2,0.6-0.4,0.8c-0.2,0.2-0.3,0.5-0.3,0.7    l0,0.1H199z M198.9,255.6c0-0.2,0.1-0.3,0.3-0.3s0.3,0.1,0.3,0.3c0,0.2-0.1,0.3-0.3,0.3C199,255.8,198.9,255.7,198.9,255.6z"></path>
	</g>
</g>
</svg>