<?xml version="1.0" encoding="UTF-8"?>
<svg xmlns="http://www.w3.org/2000/svg" viewBox="0 0 77.4 28.3" xml:space="preserve">
<style type="text/css">
	.st0{fill:#563D48;}
	.st1{fill:#F2F2F2;}
	.st2{fill:#FF9200;}
	.st3{fill:#E6E6E6;}
	.st4{fill:#563D46;}
	.st5{fill:#CCCCCC;}
	.st6{fill:#890052;}
	.st7{fill:#FFFFFF;}
</style>
<g id="Raggruppa_69" transform="translate(-6575.209 -2022.857)">
	<path id="Tracciato_388" class="st0" d="M6575.2,2039h71.3l6.1,6.1l-6.1,6.1h-71.3V2039z"></path>
	<rect id="Rettangolo_145" x="6579.1" y="2045.3" class="st1" width="12.6" height="0.5"></rect>
	<rect id="Rettangolo_146" x="6601.3" y="2045.3" class="st1" width="12.6" height="0.5"></rect>
	<rect id="Rettangolo_147" x="6623.4" y="2045.3" class="st1" width="12.6" height="0.5"></rect>
	<path id="Tracciato_383" class="st2" d="M6583.2,2022.9c1.2,0,2.2,1,2.2,2.2s-1,2.2-2.2,2.2s-2.2-1-2.2-2.2l0,0   C6581,2023.9,6582,2022.9,6583.2,2022.9z"></path>
	<rect id="Rettangolo_184" x="6597" y="2030.5" class="st0" width="0.2" height="8.5"></rect>
	<path id="Tracciato_267" class="st3" d="M6599.3,2032.9c0,0.1,0,0.2,0,0.3c-0.1,3.4-4.1,3.4-4.2,0c0-0.1,0-0.2,0-0.3   c0-3.8,2.1-6.8,2.1-6.8S6599.3,2029.1,6599.3,2032.9z"></path>
	<path id="Tracciato_299" class="st4" d="M6625.4,2035.3l-0.3-0.4l2.5-4.1h6.4v0.6l-2.3,4.4l-2.7,0.5L6625.4,2035.3z"></path>
	<path id="Tracciato_300" class="st5" d="M6635.1,2031.3v-0.7h-0.8v0.4l-0.3-0.3l-2.1,4.1l-0.4,0.4l-0.4,1.8l0.8,2h4.1v-4   L6635.1,2031.3z"></path>
	<rect id="Rettangolo_215" x="6625.1" y="2034.9" class="st1" width="6.8" height="4.1"></rect>
	<rect id="Rettangolo_216" x="6629.5" y="2036.2" class="st4" width="1.4" height="1.3"></rect>
	<rect id="Rettangolo_217" x="6627.7" y="2036.1" class="st5" width="1.3" height="2.9"></rect>
	<path id="Tracciato_303" class="st4" d="M6633.8,2036.6v-0.4h-0.5v0.4H6633.8z"></path>
	<path id="Tracciato_304" class="st4" d="M6633.8,2037h-0.5v0.4h0.5V2037L6633.8,2037z"></path>
	<rect id="Rettangolo_220" x="6634.2" y="2036.2" class="st4" width="0.5" height="0.4"></rect>
	<rect id="Rettangolo_221" x="6634.2" y="2037" class="st4" width="0.5" height="0.4"></rect>
	<path id="Tracciato_305" class="st4" d="M6627.8,2032.5l-0.1-0.1l0.7-1.1h1.7v0.2l-0.6,1.2l-0.7,0.1L6627.8,2032.5z"></path>
	<path id="Tracciato_306" class="st5" d="M6630.1,2031.3l-0.6,1.1l-0.1,0.1l-0.1,0.5l0.2,0.5h1.1v-1.1L6630.1,2031.3z"></path>
	<rect id="Rettangolo_222" x="6627.8" y="2032.4" class="st1" width="1.8" height="1.1"></rect>
	<path id="Tracciato_307" class="st4" d="M6628.9,2033.2v-0.6h-0.7v0.6H6628.9z"></path>
	<rect id="Rettangolo_227" x="6641.1" y="2030.5" class="st0" width="0.2" height="8.5"></rect>
	<path id="Tracciato_309" class="st3" d="M6643.5,2032.9c0,0.1,0,0.2,0,0.3c-0.1,3.4-4.1,3.4-4.2,0c0-0.1,0-0.2,0-0.3   c0-3.8,2.1-6.8,2.1-6.8S6643.5,2029.1,6643.5,2032.9z"></path>
	<path id="Tracciato_356" class="st3" d="M6585.8,2026.5L6585.8,2026.5c-0.2,0.1-0.5,0.1-0.7,0l0,0c-0.2-0.1-0.5-0.1-0.7,0l0,0   c-0.2,0.1-0.5,0.1-0.7,0l0,0c-0.2-0.1-0.5-0.1-0.7,0c-0.3,0.2-0.7,0.4-0.7,0.8l0,0c0,0.3,1.1,0.4,1.7,0.3c0.4,0.1,0.9,0.1,1.3,0   c0.6,0.2,1.7,0.1,1.7-0.3l0,0c0-0.3-0.4-0.6-0.7-0.8C6586.3,2026.4,6586,2026.4,6585.8,2026.5L6585.8,2026.5z"></path>
	<path id="Tracciato_357" class="st3" d="M6610.5,2030.4L6610.5,2030.4c-0.2,0.1-0.5,0.1-0.7,0l0,0c-0.2-0.1-0.5-0.1-0.7,0l0,0   c-0.2,0.1-0.5,0.1-0.7,0l0,0c-0.2-0.1-0.4-0.1-0.7,0c-0.3,0.2-0.7,0.4-0.7,0.8l0,0c0,0.3,1.1,0.4,1.7,0.3c0.4,0.1,0.9,0.1,1.3,0   c0.6,0.2,1.7,0.1,1.7-0.3l0,0c0-0.3-0.4-0.6-0.7-0.8C6610.9,2030.3,6610.7,2030.3,6610.5,2030.4L6610.5,2030.4z"></path>
	<path id="Tracciato_358" class="st3" d="M6621.4,2025.9L6621.4,2025.9c-0.2,0.1-0.5,0.1-0.7,0l0,0c-0.2-0.1-0.5-0.1-0.7,0l0,0   c-0.2,0.1-0.5,0.1-0.7,0l0,0c-0.2-0.1-0.5-0.1-0.7,0c-0.3,0.2-0.7,0.4-0.7,0.8l0,0c0,0.3,1.1,0.4,1.7,0.3c0.4,0.1,0.9,0.1,1.3,0   c0.6,0.2,1.7,0.1,1.7-0.3l0,0c0-0.3-0.4-0.6-0.7-0.8C6621.9,2025.8,6621.6,2025.8,6621.4,2025.9L6621.4,2025.9z"></path>
	<g id="Raggruppa_42" transform="translate(255.927 -14.624)">
		<path id="Tracciato_366" class="st6" d="M6371.9,2057.4l-0.3,0.1h-10.7l-0.1-0.2c-0.2-0.4-0.2-0.8-0.2-1.2c0-0.3,0.2-0.6,0.4-0.8    l0.5-3.2h5.9l2.3,1.9c0,0,1.1,0,1.7,0.7c0.2,0.3,0.3,0.6,0.4,0.9v0.4L6371.9,2057.4z"></path>
		<circle id="Ellisse_86" cx="6369.5" cy="2057.3" r="1.3"></circle>
		<circle id="Ellisse_87" class="st5" cx="6369.5" cy="2057.3" r="0.7"></circle>
		<circle id="Ellisse_88" cx="6363" cy="2057.3" r="1.3"></circle>
		<circle id="Ellisse_89" class="st5" cx="6363" cy="2057.3" r="0.7"></circle>
		<path id="Tracciato_367" class="st7" d="M6368.8,2053.7h-3.2h-0.4h-0.7l0,0v-0.6v-0.7h0.4h0.4h0.7h0.4h0.8L6368.8,2053.7z"></path>
		<path id="Tracciato_368" class="st7" d="M6364,2053.7h-1.7v-0.3v-0.6v-0.4h0.2h0.4h1.1V2053.7z"></path>
		<rect id="Rettangolo_236" x="6364.6" y="2054.6" width="0.2" height="0.4"></rect>
		<path id="Tracciato_369" d="M6368.1,2053.2L6368.1,2053.2c0.3,0,0.5,0.2,0.5,0.5l0,0c0,0.3-0.2,0.5-0.5,0.5l0,0V2053.2z"></path>
		<path id="Tracciato_370" class="st7" d="M6371.8,2055.9c-0.4,0-0.7-0.2-0.8-0.6c0-0.3,0.1-0.6,0.4-0.7c0.2,0.3,0.3,0.6,0.4,0.9    V2055.9z"></path>
		<path id="Tracciato_371" class="st1" d="M6363,2052.4l-0.6,1v-0.6l0.2-0.4H6363z"></path>
		<path id="Tracciato_372" class="st1" d="M6366.1,2052.4l-0.9,1.3h-0.4l0.9-1.3H6366.1z"></path>
	</g>
	<g id="Raggruppa_48" transform="translate(84.927 -14.624)">
		<path id="Tracciato_366-2" class="st6" d="M6529.6,2057.4l-0.3,0.1h-10.7l-0.1-0.2c-0.2-0.4-0.2-0.8-0.2-1.2    c0-0.3,0.2-0.6,0.4-0.8l0.5-3.2h5.9l2.3,1.9c0,0,1.1,0,1.7,0.7c0.2,0.3,0.3,0.6,0.4,0.9v0.4L6529.6,2057.4z"></path>
		<circle id="Ellisse_86-2" cx="6527.3" cy="2057.3" r="1.3"></circle>
		<circle id="Ellisse_87-2" class="st5" cx="6527.3" cy="2057.3" r="0.7"></circle>
		<circle id="Ellisse_88-2" cx="6520.7" cy="2057.3" r="1.3"></circle>
		<circle id="Ellisse_89-2" class="st5" cx="6520.7" cy="2057.3" r="0.7"></circle>
		<path id="Tracciato_367-2" class="st7" d="M6526.6,2053.7h-3.2h-0.4h-0.7l0,0v-0.6v-0.7h0.4h0.4h0.7h0.4h0.8L6526.6,2053.7z"></path>
		<path id="Tracciato_368-2" class="st7" d="M6521.8,2053.7h-1.7v-0.3v-0.6v-0.4h0.2h0.4h1.1V2053.7z"></path>
		<rect id="Rettangolo_236-2" x="6522.3" y="2054.6" width="0.2" height="0.4"></rect>
		<path id="Tracciato_369-2" d="M6525.9,2053.2L6525.9,2053.2c0.3,0,0.5,0.2,0.5,0.5l0,0c0,0.3-0.2,0.5-0.5,0.5l0,0V2053.2z"></path>
		<path id="Tracciato_370-2" class="st7" d="M6529.5,2055.9c-0.4,0-0.7-0.2-0.8-0.6c0-0.3,0.1-0.6,0.4-0.7c0.2,0.3,0.3,0.6,0.4,0.9    V2055.9z"></path>
		<path id="Tracciato_371-2" class="st1" d="M6520.7,2052.4l-0.6,1v-0.6l0.2-0.4H6520.7z"></path>
		<path id="Tracciato_372-2" class="st1" d="M6523.8,2052.4l-0.9,1.3h-0.4l0.9-1.3H6523.8z"></path>
	</g>
	<g id="Raggruppa_49" transform="translate(-86.073 -14.624)">
		<path id="Tracciato_366-3" class="st6" d="M6687.4,2057.4l-0.3,0.1h-10.7l-0.1-0.2c-0.2-0.4-0.2-0.8-0.2-1.2    c0-0.3,0.2-0.6,0.4-0.8l0.5-3.2h5.9l2.3,1.9c0,0,1.1,0,1.7,0.7c0.2,0.3,0.3,0.6,0.4,0.9v0.4L6687.4,2057.4z"></path>
		<circle id="Ellisse_86-3" cx="6685" cy="2057.3" r="1.3"></circle>
		<circle id="Ellisse_87-3" class="st5" cx="6685" cy="2057.3" r="0.7"></circle>
		<circle id="Ellisse_88-3" cx="6678.5" cy="2057.3" r="1.3"></circle>
		<circle id="Ellisse_89-3" class="st5" cx="6678.5" cy="2057.3" r="0.7"></circle>
		<path id="Tracciato_367-3" class="st7" d="M6684.3,2053.7h-3.2h-0.4h-0.7l0,0v-0.6v-0.7h0.4h0.4h0.7h0.4h0.8L6684.3,2053.7z"></path>
		<path id="Tracciato_368-3" class="st7" d="M6679.5,2053.7h-1.7v-0.3v-0.6v-0.4h0.2h0.4h1.1V2053.7z"></path>
		<rect id="Rettangolo_236-3" x="6680.1" y="2054.6" width="0.2" height="0.4"></rect>
		<path id="Tracciato_369-3" d="M6683.6,2053.2L6683.6,2053.2c0.3,0,0.5,0.2,0.5,0.5l0,0c0,0.3-0.2,0.5-0.5,0.5l0,0V2053.2z"></path>
		<path id="Tracciato_370-3" class="st7" d="M6687.3,2055.9c-0.4,0-0.7-0.2-0.8-0.6c0-0.3,0.1-0.6,0.4-0.7c0.2,0.3,0.3,0.6,0.4,0.9    V2055.9z"></path>
		<path id="Tracciato_371-3" class="st1" d="M6678.5,2052.4l-0.6,1v-0.6l0.2-0.4H6678.5z"></path>
		<path id="Tracciato_372-3" class="st1" d="M6681.6,2052.4l-0.9,1.3h-0.4l0.9-1.3H6681.6z"></path>
	</g>
	<g id="Tracciato_386">
		<path class="st2" d="M6593.2,2048.6c-2.8,0-4-1.5-5.1-3.1c-1.2-1.6-2.3-3-5.2-3h-4.2c-0.1,0-0.2-0.1-0.2-0.2s0.1-0.2,0.2-0.2h4.2    c3.2,0,4.5,1.7,5.6,3.3c1.1,1.5,2.2,2.9,4.8,2.8c5.6-0.1,37.3,0,37.6,0c0.1,0,0.2,0.1,0.2,0.3c0,0.1-0.1,0.2-0.2,0.2h0    c-0.3,0-32-0.1-37.6,0C6593.3,2048.6,6593.2,2048.6,6593.2,2048.6z"></path>
	</g>
	<g id="Raggruppa_47" transform="translate(425.394 34.623)">
		<path id="Tracciato_366-4" class="st2" d="M6219.4,2013.8l-0.4,0.1h-14.5l-0.1-0.3c-0.2-0.5-0.3-1.1-0.2-1.7    c0.1-0.4,0.2-0.8,0.6-1l0.6-4.3h8l3.1,2.5c0,0,1.5,0,2.3,1c0.3,0.4,0.5,0.8,0.5,1.3v0.5L6219.4,2013.8z"></path>
		<circle id="Ellisse_86-4" cx="6216.3" cy="2013.7" r="1.8"></circle>
		<circle id="Ellisse_87-4" class="st5" cx="6216.3" cy="2013.7" r="0.9"></circle>
		<circle id="Ellisse_88-4" cx="6207.5" cy="2013.7" r="1.8"></circle>
		<circle id="Ellisse_89-4" class="st5" cx="6207.5" cy="2013.7" r="0.9"></circle>
		<path id="Tracciato_367-4" class="st7" d="M6215.3,2008.8h-4.3h-0.5h-0.9v-0.1v-0.8v-0.9h0.6h0.5h0.9h0.5h1.1L6215.3,2008.8z"></path>
		<path id="Tracciato_368-4" class="st7" d="M6208.9,2008.8h-2.3v-0.4v-0.8v-0.5h0.3h0.5h1.4L6208.9,2008.8z"></path>
		<rect id="Rettangolo_236-4" x="6209.6" y="2010.1" width="0.3" height="0.6"></rect>
		<path id="Tracciato_369-4" d="M6214.4,2008.2L6214.4,2008.2c0.4,0,0.6,0.3,0.6,0.6l0,0c0,0.3-0.3,0.6-0.6,0.6l0,0V2008.2z"></path>
		<path id="Tracciato_370-4" class="st7" d="M6219.3,2011.9c-0.5,0.1-1-0.3-1-0.8c0-0.4,0.2-0.8,0.5-1c0.3,0.4,0.5,0.8,0.5,1.3    V2011.9z"></path>
		<path id="Tracciato_371-4" class="st1" d="M6207.5,2007.1l-0.9,1.3v-0.8l0.3-0.5H6207.5z"></path>
		<path id="Tracciato_372-4" class="st1" d="M6211.6,2007.1l-1.2,1.7h-0.5l1.2-1.7H6211.6z"></path>
	</g>
</g>
</svg>